<svg width="99" height="92" viewBox="0 0 99 92" fill="none" xmlns="http://www.w3.org/2000/svg">
<path d="M61.6305 2.9841C61.7355 3.24502 61.7315 3.53739 61.6194 3.79703C61.5073 4.05668 61.2962 4.26234 61.0325 4.36886C60.7689 4.47537 60.4742 4.47401 60.2132 4.3651C59.9522 4.25619 59.7462 4.04862 59.6405 3.78798C59.5348 3.52735 59.538 3.23497 59.6494 2.97504C59.7608 2.71512 59.9714 2.50891 60.2348 2.40171C60.4981 2.29452 60.7928 2.29507 61.0541 2.4033C61.3154 2.51152 61.522 2.71856 61.6284 2.97891L60.6343 3.38305L61.6305 2.9841Z" stroke="#A6750F" stroke-width="2.95257" stroke-miterlimit="5.5" stroke-linecap="round" stroke-linejoin="round"/>
<path d="M53.4199 22.931L60.5941 12.9861L60.7529 5.30859" stroke="#A6750F" stroke-width="2.67213" stroke-miterlimit="5.5" stroke-linecap="round" stroke-linejoin="round"/>
<path d="M93.0955 26.0647C92.816 26.0332 92.5353 26.1152 92.315 26.2925C92.0948 26.4699 91.9529 26.7282 91.9207 27.0108C91.8885 27.2933 91.9684 27.5769 92.1431 27.7994C92.3177 28.0218 92.5728 28.1649 92.8522 28.1971C93.1316 28.2294 93.4125 28.1482 93.6333 27.9715C93.854 27.7947 93.9965 27.5367 94.0294 27.2543C94.0624 26.9718 93.9832 26.688 93.8091 26.4651C93.635 26.2422 93.3804 26.0984 93.1011 26.0654L92.9771 27.1313L93.0955 26.0647Z" stroke="#A6750F" stroke-width="2.95257" stroke-miterlimit="5.5" stroke-linecap="round" stroke-linejoin="round"/>
<path d="M76.0669 39.3073L83.7348 29.738L91.0911 27.5352" stroke="#A6750F" stroke-width="2.67213" stroke-miterlimit="5.5" stroke-linecap="round" stroke-linejoin="round"/>
<path d="M7.66147 43.3591L11.5826 38.0597C11.8701 37.6711 12.2492 37.3694 12.6817 37.1851C13.1142 37.0008 13.5849 36.9403 14.0465 37.0097L20.597 37.994C21.0586 38.0633 21.4948 38.2601 21.8619 38.5646C22.2289 38.869 22.5137 39.2704 22.6878 39.7284L24.9595 45.7053C25.1336 46.1632 25.1908 46.6617 25.1253 47.1504C25.0598 47.6392 24.8739 48.1011 24.5864 48.4897L20.6739 53.7774C20.3864 54.166 20.0073 54.4676 19.5748 54.6519C19.1423 54.8362 18.6716 54.8967 18.21 54.8273L11.6757 53.8455C11.2139 53.7761 10.7773 53.5795 10.4097 53.2755C10.0421 52.9714 9.75627 52.5705 9.58087 52.1128L7.29232 46.1417C7.11711 45.6846 7.05897 45.1865 7.12378 44.6979C7.18858 44.2093 7.3741 43.7474 7.66147 43.3591Z" fill="#FFF9E9" stroke="#A6750F" stroke-width="2.89453" stroke-miterlimit="5.5" stroke-linejoin="round"/>
<path d="M71.7126 88.8353L75.6641 83.5584C75.9538 83.1715 76.134 82.7218 76.1865 82.2546C76.2389 81.7874 76.1618 81.3191 75.9629 80.8968L73.1404 74.9042C72.9416 74.4819 72.6279 74.1205 72.2309 73.8563C71.834 73.5921 71.3677 73.4344 70.8791 73.3991L64.5016 72.9378C64.013 72.9024 63.5191 72.9907 63.0697 73.1937C62.6203 73.3967 62.2312 73.7073 61.9414 74.0942L57.9987 79.3593C57.7089 79.7463 57.5288 80.196 57.4763 80.6632C57.4239 81.1304 57.501 81.5986 57.6998 82.0209L60.5154 87.9987C60.7144 88.4212 61.0279 88.783 61.4247 89.048C61.8214 89.3129 62.2875 89.4716 62.7762 89.5083L69.1529 89.9873C69.6411 90.024 70.1349 89.9368 70.5844 89.7345C71.0338 89.5322 71.423 89.222 71.7126 88.8353Z" fill="#FFF9E9" stroke="#A6750F" stroke-width="2.89453" stroke-miterlimit="5.5" stroke-linejoin="round"/>
<path d="M90.7556 87.0908L96.0739 79.8734C96.4639 79.3442 96.7077 78.7216 96.7808 78.0683C96.8539 77.415 96.7538 76.7539 96.4904 76.1516L92.7533 67.6037C92.49 67.0013 92.0727 66.4789 91.5435 66.0889C91.0143 65.6989 90.3917 65.4551 89.7384 65.382L81.2117 64.4278C80.5584 64.3547 79.8973 64.4548 79.295 64.7181C78.6926 64.9815 78.1702 65.3988 77.7802 65.928L72.4737 73.1294C72.0837 73.6586 71.8399 74.2812 71.7668 74.9345C71.6937 75.5878 71.7939 76.2488 72.0572 76.8512L75.7851 85.378C76.0485 85.9807 76.4656 86.5037 76.9946 86.8946C77.5235 87.2856 78.1459 87.5308 78.7993 87.6059L87.3248 88.5849C87.9776 88.6599 88.6386 88.5612 89.241 88.2989C89.8434 88.0365 90.3659 87.6197 90.7556 87.0908Z" fill="#FFF9E9" stroke="#A6750F" stroke-width="3.96487" stroke-miterlimit="5.5" stroke-linejoin="round"/>
<path d="M22.9014 42.3571L35.4825 25.625C36.4051 24.3981 37.6343 23.4356 39.0468 22.8343C40.4592 22.233 42.005 22.0141 43.5289 22.1996L65.1535 24.8319C66.6773 25.0173 68.1256 25.6006 69.3525 26.5232C70.5794 27.4458 71.5419 28.6751 72.1432 30.0875L79.9906 48.5212C80.5919 49.9337 80.8109 51.4795 80.6254 53.0033C80.4399 54.5272 79.8565 55.9754 78.934 57.2023L66.3807 73.8974C65.4582 75.1243 64.2289 76.0868 62.8165 76.6881C61.404 77.2894 59.8583 77.5082 58.3345 77.3228L36.7632 74.6971C35.2386 74.5115 33.7893 73.929 32.5604 73.0077C31.3314 72.0864 30.3659 70.8586 29.7602 69.4471L21.8579 51.0326C21.2529 49.6227 21.0308 48.078 21.214 46.5547C21.3972 45.0315 21.9794 43.5834 22.9014 42.3571Z" fill="#EFBA31" stroke="#A6750F" stroke-width="5" stroke-miterlimit="5.5" stroke-linejoin="round"/>
<path d="M27.7554 27.9453L77.7799 65.9311Z" fill="#E3A607"/>
<path d="M27.7554 27.9453L77.7799 65.9311" stroke="#A6750F" stroke-width="5.0544" stroke-miterlimit="5.5" stroke-linejoin="round"/>
<path d="M21.3359 36.4805L71.3606 74.4662Z" fill="#E3A607"/>
<path d="M21.3359 36.4805L71.3606 74.4662" stroke="#A6750F" stroke-width="5.0544" stroke-miterlimit="5.5" stroke-linejoin="round"/>
<path d="M3.66964 23.2651L9.05751 16.0996C9.4526 15.5742 9.97904 15.162 10.5839 14.9045C11.1888 14.647 11.8508 14.5532 12.5034 14.6327L21.7641 15.7599C22.4167 15.8393 23.0369 16.0891 23.5624 16.4842C24.0878 16.8793 24.5 17.4058 24.7575 18.0106L28.1182 25.9049C28.3757 26.5098 28.4694 27.1718 28.39 27.8244C28.3106 28.477 28.0607 29.0972 27.6656 29.6226L22.2897 36.7723C21.8946 37.2977 21.3682 37.7099 20.7633 37.9674C20.1584 38.2249 19.4965 38.3186 18.8439 38.2392L9.60598 37.1148C8.95304 37.0353 8.3324 36.7858 7.8061 36.3913C7.27981 35.9967 6.8663 35.4709 6.60691 34.8665L3.22276 26.9804C2.96366 26.3766 2.86854 25.7151 2.94699 25.0628C3.02544 24.4104 3.27477 23.7903 3.66964 23.2651Z" fill="#FFF9E9" stroke="#A6750F" stroke-width="3.96487" stroke-miterlimit="5.5" stroke-linejoin="round"/>
</svg>
