<?xml version="1.0" encoding="UTF-8" standalone="no"?>
<svg
   viewBox="0 0 576 512"
   version="1.1"
   id="svg1"
   sodipodi:docname="svg_casa_branco.svg"
   inkscape:version="1.4 (86a8ad7, 2024-10-11)"
   xmlns:inkscape="http://www.inkscape.org/namespaces/inkscape"
   xmlns:sodipodi="http://sodipodi.sourceforge.net/DTD/sodipodi-0.dtd"
   xmlns="http://www.w3.org/2000/svg"
   xmlns:svg="http://www.w3.org/2000/svg">
  <defs
     id="defs1" />
  <sodipodi:namedview
     id="namedview1"
     pagecolor="#ffffff"
     bordercolor="#000000"
     borderopacity="0.25"
     inkscape:showpageshadow="2"
     inkscape:pageopacity="0.0"
     inkscape:pagecheckerboard="0"
     inkscape:deskcolor="#d1d1d1"
     inkscape:zoom="0.75488281"
     inkscape:cx="172.87452"
     inkscape:cy="163.60155"
     inkscape:window-width="1920"
     inkscape:window-height="991"
     inkscape:window-x="-9"
     inkscape:window-y="-9"
     inkscape:window-maximized="1"
     inkscape:current-layer="svg1"
     showgrid="false" />
  <!--!Font Awesome Free 6.7.2 by @fontawesome - https://fontawesome.com License - https://fontawesome.com/license/free Copyright 2025 Fonticons, Inc.-->
  <path
     id="path1"
     style="stroke-width:0.871176;fill:#ffffff;fill-opacity:1"
     d="m 287.02734,28.878906 c -6.09823,0 -13.06778,0.870521 -19.16601,6.96875 L 44.578125,230.46875 c -6.098228,6.09823 -8.710937,13.06762 -8.710937,20.9082 0,15.76828 12.195793,27.96485 27.876953,27.96485 h 27.878906 v 60.7207 c -0.08712,0.78406 -0.08789,1.65539 -0.08789,2.43945 v 97.57227 c 0,19.25298 15.594674,34.84766 34.847654,34.84766 h 13.9375 c 1.04541,-10e-6 2.09131,-0.0887 3.13672,-0.17579 1.30676,0.0871 2.61315,0.17579 3.91992,0.17579 h 27.79102 20.9082 c 19.25298,-10e-6 34.84766,-15.59468 34.84766,-34.84766 v -20.9082 -55.75586 c 0,-15.4198 12.45714,-27.87696 27.87695,-27.87696 h 55.75586 c 15.41981,0 27.87695,12.45716 27.87695,27.87696 v 55.75586 20.9082 c 0,19.25298 15.59468,34.84766 34.84766,34.84766 h 20.9082 l 28.3125,0.0859 c 1.21964,0 2.44051,0.001 3.66016,-0.0859 0.95829,0.0871 1.91475,0.0859 2.87305,0.0859 h 13.93945 c 19.25298,0 34.84766,-15.59467 34.84766,-34.84765 v -14.11133 c 0.26135,-2.35218 0.43554,-4.70446 0.43554,-7.05664 l -0.60937,-139.5625 h 27.87695 c 14.80998,0 27.87695,-12.28369 27.87695,-27.96485 0.87118,-7.84058 -2.61262,-14.80998 -9.58203,-20.9082 L 305.32227,34.976562 c -5.22705,-4.355878 -12.1967,-6.097656 -18.29493,-6.097656 z m -3.67773,34.921875 c 4.88747,0 10.4748,1.406694 14.66406,4.925781 L 477.27148,226.73438 c 5.58569,4.92671 8.37984,10.55821 7.68164,16.89257 0,12.66872 -10.47421,22.5918 -22.34374,22.5918 h -10.16602 l 0.49023,112.75195 c 0,1.90033 -0.14016,24.98056 -0.34961,26.88086 v 11.40235 c 0,15.55438 -12.49733,28.15234 -27.92773,28.15234 h -24.28516 c -0.76804,0 -1.53666,9e-5 -2.30468,-0.0703 -0.97751,0.0704 -1.95613,0.0703 -2.9336,0.0703 l 1.82422,-0.0703 h -4.83594 c -15.4304,0 -27.92773,-12.59799 -27.92773,-28.15235 v -38.07226 -45.04492 c 0,-12.45756 -9.9835,-22.52149 -22.3418,-22.52149 H 232.45312 c -12.35829,0 -22.34374,10.06393 -22.34374,22.52149 v 48.57421 32.77735 c 0,15.55438 -12.49732,28.1543 -27.92774,28.1543 h -24.00195 c 1.04732,0 -2.09332,-0.0702 -3.14063,-0.14063 -0.83785,0.0704 -1.67582,0.14063 -2.51367,0.14063 h -11.17187 c -15.43043,0 -27.92774,-12.59992 -27.92774,-28.1543 v -98.24219 c 0,-0.63344 4.1e-4,-1.33726 0.0703,-1.9707 v -49.05664 h -12.97656 c -12.56776,0 -22.341796,-9.85269 -22.341796,-22.5918 0,-6.33436 2.093009,-11.96586 6.980469,-16.89258 L 267.99023,69.431641 c 4.88746,-4.926724 10.47192,-5.63086 15.35938,-5.63086 z"
     sodipodi:nodetypes="sccssccsssccscsscsssscsscccssscccscccsscccscccssscccsscsssscssccssssccssccs" />
</svg>
