<svg width="48" height="42" viewBox="0 0 48 42" fill="none" xmlns="http://www.w3.org/2000/svg">
<path d="M21.1688 39.8948L20.9344 39.6792L4.50937 24.4261C1.63125 21.7542 0 18.0042 0 14.0761V13.7667C0 7.16672 4.6875 1.50422 11.175 0.266719C14.8687 -0.445781 18.6469 0.407344 21.6562 2.52609C22.5 3.12609 23.2875 3.81984 24 4.61672C24.3937 4.16672 24.8156 3.75422 25.2656 3.36984C25.6125 3.06984 25.9688 2.78859 26.3438 2.52609C29.3531 0.407344 33.1312 -0.445781 36.825 0.257344C43.3125 1.49484 48 7.16672 48 13.7667V14.0761C48 18.0042 46.3687 21.7542 43.4906 24.4261L27.0656 39.6792L26.8313 39.8948C26.0625 40.6073 25.05 41.0105 24 41.0105C22.95 41.0105 21.9375 40.6167 21.1688 39.8948ZM22.4156 9.59484C22.3781 9.56672 22.35 9.52922 22.3219 9.49172L20.6531 7.61672L20.6437 7.60734C18.4781 5.17922 15.2062 4.07297 12.0187 4.68234C7.65 5.51672 4.5 9.32297 4.5 13.7667V14.0761C4.5 16.748 5.61563 19.3073 7.575 21.1261L24 36.3792L40.425 21.1261C42.3844 19.3073 43.5 16.748 43.5 14.0761V13.7667C43.5 9.33234 40.35 5.51672 35.9906 4.68234C32.8031 4.07297 29.5219 5.18859 27.3656 7.60734C27.3656 7.60734 27.3656 7.60734 27.3562 7.61672C27.3469 7.62609 27.3563 7.61672 27.3469 7.62609L25.6781 9.50109C25.65 9.53859 25.6125 9.56672 25.5844 9.60422C25.1625 10.0261 24.5906 10.2605 24 10.2605C23.4094 10.2605 22.8375 10.0261 22.4156 9.60422V9.59484Z" fill="white"/>
</svg>
