<svg width="209" height="63" viewBox="0 0 209 63" fill="none" xmlns="http://www.w3.org/2000/svg">
<path d="M73.35 22.85H86.985C94.335 22.85 98.01 25.34 98.01 30.32C98.01 32.21 97.8 33.665 97.38 34.685C96.99 35.705 96.165 36.665 94.905 37.565C96.375 38.195 97.38 38.975 97.92 39.905C98.49 40.805 98.775 42.32 98.775 44.45C98.775 50.15 94.905 53 87.165 53H73.35V22.85ZM86.22 41.075H83.79V46.025H86.22C87.27 46.025 87.975 45.86 88.335 45.53C88.695 45.17 88.875 44.525 88.875 43.595C88.875 42.635 88.68 41.975 88.29 41.615C87.9 41.255 87.21 41.075 86.22 41.075ZM86.085 29.735H83.79V34.55H86.13C87.03 34.55 87.66 34.355 88.02 33.965C88.38 33.575 88.56 32.96 88.56 32.12C88.56 31.25 88.365 30.635 87.975 30.275C87.585 29.915 86.955 29.735 86.085 29.735ZM100.684 53V22.85H111.124V53H100.684ZM113.329 31.355V22.85H137.179V31.355L127.414 43.73V44.495H137.179V53H113.329V44.9L123.319 32.12V31.355H113.329ZM138.949 31.355V22.85H162.799V31.355L153.034 43.73V44.495H162.799V53H138.949V44.9L148.939 32.12V31.355H138.949ZM175.324 22.85V42.605C175.324 43.475 175.534 44.09 175.954 44.45C176.404 44.81 177.139 44.99 178.159 44.99C179.179 44.99 179.899 44.81 180.319 44.45C180.739 44.09 180.949 43.475 180.949 42.605V22.85H191.389V42.02C191.389 46.28 190.324 49.28 188.194 51.02C186.064 52.73 182.704 53.585 178.114 53.585C173.554 53.585 170.209 52.745 168.079 51.065C165.949 49.385 164.884 46.43 164.884 42.2V22.85H175.324Z" fill="url(#paint0_linear_1176_842)"/>
<path d="M37.4398 2.65747C37.5019 2.83155 37.4996 3.02662 37.4333 3.19985C37.367 3.37308 37.2422 3.5103 37.0863 3.58136C36.9304 3.65243 36.7562 3.65152 36.6018 3.57886C36.4475 3.50619 36.3257 3.36771 36.2632 3.19381C36.2007 3.01992 36.2026 2.82484 36.2685 2.65142C36.3344 2.478 36.4589 2.34042 36.6146 2.2689C36.7703 2.19738 36.9446 2.19775 37.0991 2.26996C37.2536 2.34216 37.3757 2.4803 37.4386 2.654L36.8508 2.92364L37.4398 2.65747Z" stroke="#A6750F" stroke-width="2.95257" stroke-miterlimit="5.5" stroke-linecap="round" stroke-linejoin="round"/>
<path d="M32.585 15.9645L36.8268 9.32939L36.9206 4.20703" stroke="#A6750F" stroke-width="2.67213" stroke-miterlimit="5.5" stroke-linecap="round" stroke-linejoin="round"/>
<path d="M56.043 18.0602C55.8778 18.0392 55.7118 18.0938 55.5816 18.2122C55.4513 18.3305 55.3675 18.5029 55.3484 18.6914C55.3294 18.8799 55.3766 19.0691 55.4799 19.2175C55.5832 19.3659 55.734 19.4614 55.8992 19.4829C56.0644 19.5045 56.2305 19.4503 56.361 19.3323C56.4915 19.2144 56.5757 19.0423 56.5952 18.8538C56.6147 18.6654 56.5679 18.476 56.465 18.3273C56.362 18.1786 56.2115 18.0827 56.0463 18.0606L55.973 18.7718L56.043 18.0602Z" stroke="#A6750F" stroke-width="2.95257" stroke-miterlimit="5.5" stroke-linecap="round" stroke-linejoin="round"/>
<path d="M45.9746 26.8934L50.5083 20.5088L54.8577 19.0391" stroke="#A6750F" stroke-width="2.67213" stroke-miterlimit="5.5" stroke-linecap="round" stroke-linejoin="round"/>
<path d="M5.52978 29.5964L7.84817 26.0607C8.01817 25.8014 8.2423 25.6002 8.49802 25.4772C8.75374 25.3542 9.03206 25.3138 9.30498 25.3601L13.178 26.0169C13.4509 26.0631 13.7088 26.1944 13.9258 26.3976C14.1428 26.6007 14.3112 26.8685 14.4142 27.174L15.7574 31.1618C15.8603 31.4673 15.8941 31.7999 15.8554 32.126C15.8166 32.4521 15.7067 32.7602 15.5367 33.0195L13.2235 36.5474C13.0535 36.8067 12.8293 37.0079 12.5736 37.1309C12.3179 37.2539 12.0396 37.2942 11.7667 37.2479L7.90322 36.5928C7.63015 36.5465 7.37203 36.4154 7.15468 36.2125C6.93732 36.0097 6.76834 35.7422 6.66463 35.4368L5.31152 31.453C5.20792 31.1479 5.17355 30.8156 5.21186 30.4897C5.25018 30.1637 5.35987 29.8555 5.52978 29.5964Z" fill="#FFF9E9" stroke="#A6750F" stroke-width="2.89453" stroke-miterlimit="5.5" stroke-linejoin="round"/>
<path d="M43.4005 59.9362L45.7368 56.4155C45.9081 56.1574 46.0146 55.8574 46.0457 55.5456C46.0767 55.2339 46.0311 54.9215 45.9135 54.6397L44.2447 50.6415C44.1271 50.3598 43.9416 50.1186 43.7069 49.9424C43.4722 49.7661 43.1965 49.6609 42.9076 49.6373L39.1369 49.3295C38.848 49.3059 38.556 49.3648 38.2903 49.5003C38.0246 49.6357 37.7945 49.8429 37.6232 50.1011L35.292 53.6139C35.1207 53.8721 35.0142 54.1721 34.9832 54.4839C34.9522 54.7956 34.9977 55.108 35.1153 55.3897L36.78 59.3781C36.8977 59.66 37.0831 59.9014 37.3176 60.0781C37.5522 60.2549 37.8278 60.3608 38.1168 60.3853L41.887 60.7049C42.1757 60.7293 42.4676 60.6711 42.7334 60.5362C42.9991 60.4012 43.2292 60.1942 43.4005 59.9362Z" fill="#FFF9E9" stroke="#A6750F" stroke-width="2.89453" stroke-miterlimit="5.5" stroke-linejoin="round"/>
<path d="M54.6608 58.7754L57.8053 53.96C58.0358 53.6069 58.18 53.1916 58.2232 52.7557C58.2664 52.3198 58.2072 51.8787 58.0515 51.4768L55.842 45.7737C55.6862 45.3718 55.4395 45.0233 55.1266 44.7631C54.8137 44.5029 54.4456 44.3402 54.0593 44.2915L49.0179 43.6548C48.6316 43.606 48.2408 43.6728 47.8846 43.8485C47.5285 44.0242 47.2196 44.3026 46.989 44.6557L43.8515 49.4604C43.6209 49.8136 43.4768 50.2289 43.4336 50.6648C43.3903 51.1007 43.4496 51.5417 43.6053 51.9436L45.8094 57.6327C45.9652 58.0348 46.2117 58.3837 46.5245 58.6445C46.8373 58.9054 47.2052 59.069 47.5916 59.1191L52.6323 59.7723C53.0183 59.8223 53.4091 59.7564 53.7652 59.5814C54.1214 59.4064 54.4304 59.1283 54.6608 58.7754Z" fill="#FFF9E9" stroke="#A6750F" stroke-width="3.96487" stroke-miterlimit="5.5" stroke-linejoin="round"/>
<path d="M14.54 28.9277L21.9787 17.7642C22.5242 16.9456 23.251 16.3034 24.0861 15.9022C24.9212 15.5011 25.8352 15.355 26.7361 15.4788L39.5218 17.235C40.4228 17.3587 41.2791 17.7479 42.0045 18.3634C42.7299 18.979 43.299 19.7991 43.6545 20.7415L48.2943 33.0404C48.6499 33.9827 48.7793 35.0141 48.6697 36.0308C48.56 37.0475 48.2151 38.0137 47.6696 38.8323L40.2474 49.9711C39.7019 50.7898 38.9751 51.4319 38.14 51.8331C37.3049 52.2343 36.391 52.3803 35.49 52.2565L22.7359 50.5047C21.8344 50.3809 20.9776 49.9922 20.251 49.3775C19.5243 48.7629 18.9534 47.9437 18.5953 47.002L13.9231 34.7159C13.5653 33.7752 13.434 32.7446 13.5423 31.7283C13.6506 30.712 13.9949 29.7459 14.54 28.9277Z" fill="#EFBA31" stroke="#A6750F" stroke-width="5" stroke-miterlimit="5.5" stroke-linejoin="round"/>
<path d="M17.4111 19.3125L46.9884 44.6563L17.4111 19.3125Z" fill="#E3A607"/>
<path d="M17.4111 19.3125L46.9884 44.6563" stroke="#A6750F" stroke-width="5.0544" stroke-miterlimit="5.5" stroke-linejoin="round"/>
<path d="M13.6152 25.0078L43.1926 50.3516L13.6152 25.0078Z" fill="#E3A607"/>
<path d="M13.6152 25.0078L43.1926 50.3516" stroke="#A6750F" stroke-width="5.0544" stroke-miterlimit="5.5" stroke-linejoin="round"/>
<path d="M13.6152 25.0078L43.1926 50.3516L13.6152 25.0078Z" fill="#E3A607"/>
<path d="M13.6152 25.0078L43.1926 50.3516" stroke="#A6750F" stroke-width="5.0544" stroke-miterlimit="5.5" stroke-linejoin="round"/>
<path d="M3.16969 16.1931L6.3553 11.4123C6.5889 11.0617 6.90016 10.7867 7.25779 10.6149C7.61543 10.4431 8.00684 10.3806 8.39268 10.4336L13.8682 11.1857C14.254 11.2387 14.6207 11.4053 14.9314 11.6689C15.242 11.9325 15.4857 12.2838 15.638 12.6873L17.625 17.9544C17.7773 18.3579 17.8327 18.7996 17.7857 19.235C17.7388 19.6704 17.5911 20.0842 17.3575 20.4348L14.1789 25.205C13.9453 25.5555 13.634 25.8306 13.2764 26.0024C12.9188 26.1742 12.5274 26.2367 12.1416 26.1837L6.67958 25.4335C6.29353 25.3804 5.92657 25.214 5.6154 24.9508C5.30423 24.6875 5.05974 24.3367 4.90637 23.9334L2.90548 18.6719C2.75228 18.2691 2.69604 17.8277 2.74242 17.3925C2.78881 16.9572 2.93623 16.5435 3.16969 16.1931Z" fill="#FFF9E9" stroke="#A6750F" stroke-width="3.96487" stroke-miterlimit="5.5" stroke-linejoin="round"/>
<defs>
<linearGradient id="paint0_linear_1176_842" x1="72" y1="32.1556" x2="188.376" y2="32.1556" gradientUnits="userSpaceOnUse">
<stop stop-color="#F7C110"/>
<stop offset="1" stop-color="#F79010"/>
</linearGradient>
</defs>
</svg>
