<?xml version="1.0" encoding="UTF-8" standalone="no"?>
<svg
   viewBox="0 0 448 512"
   version="1.1"
   id="svg1"
   sodipodi:docname="svg_voce_segue_branco.svg"
   inkscape:version="1.4 (86a8ad7, 2024-10-11)"
   xmlns:inkscape="http://www.inkscape.org/namespaces/inkscape"
   xmlns:sodipodi="http://sodipodi.sourceforge.net/DTD/sodipodi-0.dtd"
   xmlns="http://www.w3.org/2000/svg"
   xmlns:svg="http://www.w3.org/2000/svg">
  <defs
     id="defs1" />
  <sodipodi:namedview
     id="namedview1"
     pagecolor="#ffffff"
     bordercolor="#000000"
     borderopacity="0.25"
     inkscape:showpageshadow="2"
     inkscape:pageopacity="0.0"
     inkscape:pagecheckerboard="0"
     inkscape:deskcolor="#d1d1d1"
     inkscape:zoom="1.5097656"
     inkscape:cx="310.64424"
     inkscape:cy="332.83312"
     inkscape:window-width="1920"
     inkscape:window-height="991"
     inkscape:window-x="-9"
     inkscape:window-y="-9"
     inkscape:window-maximized="1"
     inkscape:current-layer="svg1" />
  <!--!Font Awesome Free 6.7.2 by @fontawesome - https://fontawesome.com License - https://fontawesome.com/license/free Copyright 2025 Fonticons, Inc.-->
  <path
     id="path1-6-8"
     style="fill:#ffffff;fill-opacity:1;stroke-width:0.389022"
     d="m 114.30516,135.24999 c -27.503195,-0.003 -49.800795,22.29176 -49.800795,49.79492 0,27.50317 22.2976,49.79806 49.800795,49.79492 12.43591,0.001 23.78061,-4.58664 32.50781,-12.12305 -13.71391,-12.88072 -22.32812,-31.12836 -22.32812,-51.42773 0,-11.75677 2.91548,-22.81777 7.99805,-32.56836 -5.63708,-2.21348 -11.75527,-3.47143 -18.17774,-3.4707 z M 96.527814,253.51171 c -38.318714,0 -69.363293,49.11294 -69.363293,87.43164 0,6.37997 5.174726,11.55468 11.554688,11.55469 H 78.45749 c 14.211989,-42.77671 48.84357,-82.83613 89.55861,-84.04297 -10.47891,-9.15365 -22.77584,-14.94336 -35.93164,-14.94336 z" />
  <path
     id="path1-6"
     style="fill:#ffffff;fill-opacity:1;stroke-width:0.383108"
     d="m 319.57302,139.87157 c -7.55257,-8.3e-4 -14.67798,1.7556 -21.06836,4.80469 3.61562,8.49014 5.625,17.8301 5.625,27.64063 0,19.43681 -7.86005,37.03431 -20.5664,49.80273 8.96106,9.7102 21.75457,15.8278 36.00976,15.82617 27.08509,0.003 49.04297,-21.95205 49.04297,-49.03711 0,-27.08506 -21.95788,-49.0402 -49.04297,-49.03711 z m -17.50781,116.46485 c -12.47911,0 -24.1648,5.30907 -34.23047,13.7539 37.64107,5.39815 69.11038,43.39745 82.41797,83.72461 h 43.75781 c 6.28298,0 11.37891,-5.09397 11.37891,-11.37695 0,-37.73618 -30.57241,-86.10156 -68.30859,-86.10156 z" />
  <path
     d="m 215.59638,245.988 c 39.00095,0.005 70.61974,-31.6108 70.61974,-70.61172 0,-39.00093 -31.61879,-70.61617 -70.61975,-70.61172 -39.00096,-0.004 -70.61975,31.61079 -70.61975,70.61172 0,39.00092 31.61879,70.61617 70.61976,70.61172 z m -25.2106,26.4794 c -54.33791,0 -98.35991,69.64352 -98.35991,123.98144 0,9.04712 7.337,16.38412 16.38413,16.38412 h 214.37274 c 9.04713,0 16.38413,-7.337 16.38413,-16.38412 0,-54.33792 -44.02199,-123.98144 -98.35991,-123.98144 z"
     id="path1-2"
     style="fill:#ffffff;fill-opacity:1;stroke-width:0.551654"
     sodipodi:nodetypes="cscscsssssss" />
</svg>
