<svg width="35" height="35" viewBox="0 0 40 40" fill="none" xmlns="http://www.w3.org/2000/svg">
<circle cx="8.125" cy="8.125" r="2.3125" stroke="white"/>
<circle cx="20" cy="2.8125" r="2.3125" stroke="white"/>
<circle cx="31.875" cy="8.125" r="2.3125" stroke="white"/>
<circle cx="20" cy="17.5" r="2.9375" stroke="white"/>
<circle cx="37.1875" cy="20" r="2.3125" stroke="white"/>
<circle cx="2.8125" cy="20" r="2.3125" stroke="white"/>
<circle cx="8.125" cy="31.875" r="2.3125" stroke="white"/>
<circle cx="20" cy="37.1875" r="2.3125" stroke="white"/>
<circle cx="31.875" cy="31.5625" r="2.3125" stroke="white"/>
<circle cx="20" cy="20.3125" r="8.25" stroke="white"/>
<path d="M25.625 26.5625C25.625 23.4559 23.1066 20.9375 20 20.9375C16.8934 20.9375 14.375 23.4559 14.375 26.5625" stroke="white"/>
<line x1="10.0411" y1="9.33395" x2="14.4161" y2="13.7089" stroke="white"/>
<line x1="5.625" y1="19.5" x2="11.875" y2="19.5" stroke="white"/>
<line x1="9.94392" y1="29.6621" x2="13.3814" y2="25.9121" stroke="white"/>
<line x1="29.677" y1="30.3817" x2="25.6145" y2="26.9442" stroke="white"/>
<line x1="34.375" y1="20.5" x2="28.125" y2="20.5" stroke="white"/>
<line x1="30.0539" y1="10.0277" x2="25.9914" y2="14.4027" stroke="white"/>
<line x1="20.5" y1="5.3125" x2="20.5" y2="11.5625" stroke="white"/>
<line x1="20.5" y1="28.4375" x2="20.5" y2="34.6875" stroke="white"/>
</svg>
