<svg width="23" height="28" viewBox="0 0 23 28" fill="none" xmlns="http://www.w3.org/2000/svg">
<path d="M18.2245 11.2107L17.6825 15.3869C17.6234 15.8423 17.359 16.2456 16.9648 16.4813L11.2255 19.9133C10.9275 20.0915 10.5768 20.1608 10.2334 20.1094L5.21316 19.3573C4.29142 19.2192 3.71742 18.2828 4.01261 17.3988L5.66069 12.4632C5.77425 12.123 6.00589 11.8349 6.31363 11.6509L12.0316 8.23157C12.4258 7.99588 12.9061 7.95372 13.3353 8.11716L17.2708 9.6159C17.9194 9.86289 18.3138 10.5225 18.2245 11.2107Z" fill="#F79010" stroke="#DCCEB1"/>
<path d="M11.1478 4.89238L11.1893 7.60122C11.1975 8.13706 10.9193 8.63657 10.4593 8.91161L8.13418 10.302C7.67424 10.5771 7.10251 10.5858 6.63435 10.325L4.26765 9.00659C3.79949 8.74579 3.50603 8.25504 3.49781 7.71921L3.45626 5.01037C3.44804 4.47453 3.72631 3.97501 4.18625 3.69998L6.5114 2.30957C6.97133 2.03454 7.54306 2.02577 8.01122 2.28656L10.3779 3.605C10.8461 3.8658 11.1395 4.35655 11.1478 4.89238Z" fill="#B5862E" stroke="#DCCEB1"/>
<path d="M20.1478 19.8924L20.1893 22.6012C20.1975 23.1371 19.9193 23.6366 19.4593 23.9116L17.1342 25.302C16.6742 25.5771 16.1025 25.5858 15.6344 25.325L13.2677 24.0066C12.7995 23.7458 12.506 23.255 12.4978 22.7192L12.4563 20.0104C12.448 19.4745 12.7263 18.975 13.1862 18.7L15.5114 17.3096C15.9713 17.0345 16.5431 17.0258 17.0112 17.2866L19.3779 18.605C19.8461 18.8658 20.1395 19.3565 20.1478 19.8924Z" fill="#B5862E" stroke="#DCCEB1"/>
</svg>
