<svg width="24" height="28" viewBox="0 0 24 28" fill="none" xmlns="http://www.w3.org/2000/svg">
<path d="M17.4876 9.6159C18.1362 9.86289 18.5306 10.5225 18.4413 11.2107L17.8993 15.3869C17.8402 15.8423 17.5758 16.2456 17.1816 16.4813L11.4423 19.9133C11.1443 20.0915 10.7936 20.1608 10.4502 20.1094L5.42996 19.3573C4.50821 19.2192 3.93422 18.2828 4.22941 17.3988L5.87748 12.4632C5.99105 12.1231 6.22269 11.8349 6.53043 11.6509L12.2484 8.23157C12.6426 7.99588 13.1229 7.95372 13.5521 8.11716L17.4876 9.6159Z" stroke="#DCCEB1"/>
<path d="M10.5947 3.605C11.0629 3.8658 11.3563 4.35655 11.3646 4.89238L11.4061 7.60122C11.4143 8.13706 11.1361 8.63657 10.6761 8.91161L8.35097 10.302C7.89104 10.5771 7.3193 10.5858 6.85115 10.325L4.48445 9.00659C4.01629 8.74579 3.72283 8.25504 3.71461 7.71921L3.21467 7.72688L3.71461 7.71921L3.67306 5.01037C3.66484 4.47453 3.94311 3.97501 4.40304 3.69998L6.72819 2.30957C7.18813 2.03454 7.75986 2.02577 8.22802 2.28656L10.5947 3.605Z" fill="#B5862E" stroke="#DCCEB1"/>
<path d="M19.5947 18.605C20.0629 18.8658 20.3563 19.3565 20.3646 19.8924L20.4061 22.6012C20.4143 23.1371 20.1361 23.6366 19.6761 23.9116L17.351 25.302C16.891 25.5771 16.3193 25.5858 15.8511 25.325L13.4844 24.0066C13.0163 23.7458 12.7228 23.255 12.7146 22.7192L12.2147 22.7269L12.7146 22.7192L12.6731 20.0104C12.6648 19.4745 12.9431 18.975 13.403 18.7L15.7282 17.3096C16.1881 17.0345 16.7599 17.0258 17.228 17.2866L19.5947 18.605Z" fill="#B5862E" stroke="#DCCEB1"/>
</svg>
