<svg width="1920" height="1080" viewBox="0 0 1920 1080" fill="none" xmlns="http://www.w3.org/2000/svg">
<g clip-path="url(#clip0_2634_5426)">
<rect width="1920" height="1080" fill="#FCBD18"/>
<path d="M190.96 -12.769L242.943 74.6054L289.965 164.747L240.288 253.453L185.734 339.245L84.0738 340.577L-17.5018 336.228L-69.4847 248.853L-116.506 158.712L-66.8293 70.006L-12.2753 -15.7865L89.3847 -17.1179L190.96 -12.769Z" fill="#FED700"/>
<path d="M491.96 171.231L543.943 258.605L590.965 348.747L541.288 437.453L486.734 523.245L385.074 524.577L283.498 520.228L231.515 432.853L184.494 342.712L234.171 254.006L288.725 168.213L390.385 166.882L491.96 171.231Z" fill="#F3E195"/>
<path d="M504.96 -180.769L556.943 -93.3946L603.965 -3.25313L554.288 85.4526L499.734 171.245L398.074 172.577L296.498 168.228L244.515 80.8533L197.494 -9.28822L247.171 -97.994L301.725 -183.787L403.385 -185.118L504.96 -180.769Z" fill="#FCBD18"/>
<path d="M799.959 0.231009L851.942 87.6054L898.964 177.747L849.287 266.453L794.733 352.245L693.073 353.577L591.497 349.228L539.514 261.853L492.493 171.712L542.17 83.006L596.724 -2.78654L698.384 -4.1179L799.959 0.231009Z" fill="#D29902"/>
<path d="M186.96 337.231L238.943 424.605L285.965 514.747L236.288 603.453L181.734 689.245L80.0738 690.577L-21.5018 686.228L-73.4847 598.853L-120.506 508.712L-70.8293 420.006L-16.2753 334.213L85.3847 332.882L186.96 337.231Z" fill="#EDCF55"/>
<path d="M490.96 518.231L542.943 605.605L589.965 695.747L540.288 784.453L485.734 870.245L384.074 871.577L282.498 867.228L230.515 779.853L183.494 689.712L233.171 601.006L287.725 515.213L389.385 513.882L490.96 518.231Z" fill="#FDD302"/>
<path d="M204.96 679.231L256.943 766.605L303.965 856.747L254.288 945.453L199.734 1031.25L98.0738 1032.58L-3.50179 1028.23L-55.4847 940.853L-102.506 850.712L-52.8293 762.006L1.72474 676.213L103.385 674.882L204.96 679.231Z" fill="#FFFECB"/>
<path d="M452.404 470.752C446.692 470.622 442.488 473.149 438.137 476.45C434.333 480.248 432.432 484.878 432.432 490.339L432.432 641.333L452.407 641.332C457.878 641.333 462.513 639.432 466.318 635.635C470.121 631.835 472.022 627.206 472.022 621.746L472.022 470.752L452.404 470.752Z" fill="white"/>
<path d="M963.48 562.056C963.48 555.632 961.123 550.173 956.403 545.676C951.902 540.966 946.431 538.611 939.997 538.611C933.35 538.614 927.667 540.965 922.949 545.676C918.448 550.172 916.193 555.632 916.194 562.056C916.194 568.693 918.448 574.367 922.948 579.077C927.666 583.573 933.349 585.821 939.997 585.821C946.43 585.822 951.9 583.574 956.403 579.077C961.12 574.366 963.48 568.693 963.48 562.056Z" fill="#333333"/>
<path d="M595.908 510.473L496.39 595.941C490.204 601.402 487.116 608.049 487.116 615.884L487.1 616.24C487.1 623.362 489.599 629.416 494.59 634.402C499.58 639.387 505.648 641.88 512.782 641.88H657.957L657.957 622.294C657.956 616.833 656.056 612.204 652.252 608.405C648.449 604.369 643.812 602.351 638.341 602.351L549.168 602.351L648.685 517.239C654.871 511.778 657.96 505.131 657.96 497.296C657.959 490.174 655.346 484.12 650.112 479.134C645.115 473.911 639.054 471.3 631.921 471.299H487.103V490.886C487.103 496.346 489.004 500.976 492.807 504.775C496.61 508.573 501.248 510.472 506.718 510.472L595.908 510.473Z" fill="white"/>
<path d="M780.222 509.925L680.704 595.394C674.518 600.854 671.43 607.502 671.43 615.337L671.439 615.691C671.439 622.814 673.938 628.867 678.929 633.853C683.927 638.839 689.987 641.332 697.121 641.332H842.295L842.295 621.745C842.294 616.285 840.394 611.655 836.59 607.857C832.787 603.82 828.15 601.802 822.679 601.803H733.505L833.023 516.69C839.209 511.23 842.297 504.582 842.297 496.748C842.297 489.625 839.681 483.571 834.45 478.585C829.459 473.362 823.392 470.751 816.258 470.751L671.441 470.751V490.337C671.441 495.798 673.342 500.427 677.145 504.226C680.948 508.024 685.586 509.924 691.056 509.924L780.222 509.925Z" fill="white"/>
<path d="M1025.24 556C1025.24 579.741 1016.92 599.921 1000.27 616.54C995.996 620.813 991.238 624.612 986.004 627.936C972.212 636.957 956.874 641.468 939.991 641.468C922.87 641.469 907.532 636.957 893.977 627.936C881.849 620.339 872.219 610.248 865.085 597.665C857.952 585.083 854.384 571.194 854.384 556L854.384 470.887C881.281 468.998 893.977 476 893.977 510.061L893.977 556C893.977 568.82 898.378 579.741 907.175 588.763C916.211 597.547 927.15 601.939 939.991 601.939C952.594 601.939 963.414 597.547 972.45 588.763C981.487 579.741 986.004 568.82 986.004 556V510.061C985.552 472.364 1003.26 470.887 1025.24 470.887L1025.24 556Z" fill="white"/>
<path d="M381.954 516.374C392.624 522.027 401.225 530.071 407.757 540.506C414.29 550.941 417.556 562.464 417.556 575.073C417.555 593.335 411.132 608.988 398.285 622.032C385.438 634.858 369.868 641.272 351.577 641.272L201 641.272L201 478.872C201 460.611 207.423 445.067 220.271 432.24C233.337 419.413 249.015 413 267.306 413H327.406C345.697 413 361.267 419.413 374.115 432.24C387.18 445.067 393.712 460.611 393.712 478.873C393.706 479.318 393.712 479.753 393.728 480.176C393.722 480.622 393.728 481.056 393.744 481.48L393.409 482.459C393.415 482.679 393.412 482.901 393.401 483.125L393.417 484.429C393.423 484.649 393.421 484.975 393.411 485.407C393.405 485.853 393.295 486.289 393.079 486.715C393.095 488.019 392.983 489.322 392.744 490.625C392.521 491.07 392.41 491.396 392.411 491.604C392.405 492.05 392.294 492.486 392.079 492.912C392.073 493.357 391.962 493.792 391.746 494.218C391.74 494.663 391.63 495.099 391.414 495.526C391.192 496.398 390.97 497.16 390.746 497.811C390.523 498.9 390.196 500.097 389.765 501.401C389.541 501.846 389.43 502.172 389.431 502.38C389.208 502.825 388.986 503.26 388.764 503.686C388.542 504.339 388.215 505.1 387.783 505.97C387.559 506.415 387.448 506.741 387.449 506.948C387.226 507.394 387.004 507.829 386.782 508.253C386.339 508.907 386.012 509.559 385.802 510.211C385.579 510.657 385.357 511.092 385.135 511.517C384.044 513.257 382.955 514.887 381.866 516.406L381.954 516.374ZM237.256 478.873L237.256 509.2L327.406 509.2C335.681 509.2 342.758 506.265 348.637 500.395C354.517 494.525 357.456 487.351 357.456 478.872C357.458 470.611 354.518 463.546 348.637 457.676C342.758 451.806 335.681 448.871 327.406 448.872L267.306 448.871C259.031 448.872 251.954 451.806 246.075 457.676C241.721 462.023 238.89 467.132 237.583 473.002C237.36 474.961 237.25 476.917 237.252 478.87L237.256 478.873ZM351.577 605.074C359.851 605.073 366.928 602.139 372.808 596.269C378.687 590.4 381.627 583.334 381.627 575.073C381.628 566.812 378.688 559.746 372.807 553.876C366.928 548.006 359.851 545.071 351.577 545.071H267.306C259.031 545.072 251.954 548.007 246.075 553.876C240.195 559.746 237.256 566.812 237.256 575.073L237.256 605.074L351.577 605.074Z" fill="white"/>
</g>
<defs>
<clipPath id="clip0_2634_5426">
<rect width="1920" height="1080" fill="white"/>
</clipPath>
</defs>
</svg>
