<svg width="358" height="373" viewBox="0 0 358 373" fill="none" xmlns="http://www.w3.org/2000/svg">
<path d="M224.919 9.04182C225.303 10.1129 225.288 11.313 224.879 12.3788C224.47 13.4446 223.7 14.2889 222.737 14.7261C221.775 15.1633 220.7 15.1578 219.747 14.7107C218.794 14.2636 218.043 13.4116 217.657 12.3417C217.271 11.2718 217.283 10.0716 217.69 9.00464C218.096 7.93767 218.865 7.09122 219.826 6.65118C220.787 6.21114 221.862 6.21343 222.816 6.65767C223.77 7.10192 224.523 7.95181 224.912 9.02052L221.284 10.6794L224.919 9.04182Z" stroke="#A6750F" stroke-width="12" stroke-miterlimit="5.5" stroke-linecap="round" stroke-linejoin="round"/>
<path d="M194.955 90.9256L221.137 50.1029L221.716 18.5876" stroke="#A6750F" stroke-width="12" stroke-miterlimit="5.5" stroke-linecap="round" stroke-linejoin="round"/>
<path d="M339.748 103.805C338.728 103.675 337.704 104.011 336.9 104.74C336.096 105.468 335.579 106.528 335.461 107.688C335.343 108.848 335.635 110.012 336.273 110.925C336.91 111.838 337.841 112.425 338.86 112.558C339.88 112.69 340.905 112.357 341.711 111.631C342.517 110.906 343.037 109.847 343.157 108.687C343.277 107.528 342.988 106.363 342.353 105.448C341.718 104.533 340.788 103.943 339.769 103.807L339.316 108.183L339.748 103.805Z" stroke="#A6750F" stroke-width="12" stroke-miterlimit="5.5" stroke-linecap="round" stroke-linejoin="round"/>
<path d="M277.603 158.156L305.586 118.875L332.433 109.833" stroke="#A6750F" stroke-width="12" stroke-miterlimit="5.5" stroke-linecap="round" stroke-linejoin="round"/>
<path d="M27.9598 174.787L42.2698 153.034C43.3191 151.439 44.7025 150.201 46.281 149.444C47.8594 148.687 49.5772 148.439 51.2618 148.724L75.1675 152.764C76.8521 153.049 78.4441 153.857 79.7835 155.106C81.1229 156.356 82.1623 158.004 82.7976 159.884L91.0884 184.418C91.7237 186.298 91.9323 188.344 91.6932 190.35C91.4542 192.357 90.7758 194.253 89.7265 195.848L75.4482 217.553C74.3989 219.149 73.0155 220.387 71.437 221.143C69.8586 221.9 68.1409 222.148 66.4563 221.863L42.6096 217.833C40.9241 217.548 39.3309 216.741 37.9893 215.493C36.6477 214.245 35.6047 212.599 34.9646 210.721L26.6126 186.21C25.9732 184.333 25.761 182.289 25.9975 180.283C26.234 178.277 26.9111 176.382 27.9598 174.787Z" fill="#FFF9E9" stroke="#A6750F" stroke-width="12" stroke-miterlimit="5.5" stroke-linejoin="round"/>
<path d="M261.713 361.455L276.134 339.794C277.191 338.206 277.849 336.36 278.04 334.442C278.232 332.524 277.95 330.602 277.225 328.869L266.924 304.27C266.198 302.536 265.053 301.052 263.605 299.968C262.156 298.883 260.455 298.236 258.671 298.091L235.397 296.197C233.614 296.052 231.811 296.415 230.171 297.248C228.531 298.081 227.111 299.356 226.054 300.944L211.665 322.557C210.607 324.146 209.95 325.992 209.758 327.909C209.567 329.827 209.848 331.749 210.574 333.483L220.849 358.021C221.576 359.756 222.72 361.241 224.168 362.328C225.616 363.416 227.317 364.067 229.1 364.218L252.372 366.184C254.153 366.335 255.955 365.977 257.596 365.146C259.236 364.316 260.656 363.043 261.713 361.455Z" fill="#FFF9E9" stroke="#A6750F" stroke-width="12" stroke-miterlimit="5.5" stroke-linejoin="round"/>
<path d="M326.213 349.306L345.621 319.679C347.045 317.507 347.934 314.951 348.201 312.269C348.468 309.587 348.102 306.874 347.141 304.401L333.503 269.313C332.542 266.84 331.019 264.696 329.088 263.095C327.156 261.494 324.884 260.493 322.5 260.193L291.382 256.276C288.998 255.976 286.586 256.387 284.387 257.468C282.189 258.549 280.283 260.262 278.859 262.434L259.494 291.995C258.07 294.168 257.181 296.723 256.914 299.405C256.647 302.087 257.012 304.8 257.973 307.273L271.578 342.275C272.54 344.749 274.062 346.895 275.992 348.5C277.923 350.105 280.194 351.112 282.579 351.42L313.692 355.439C316.074 355.746 318.486 355.341 320.685 354.265C322.883 353.188 324.79 351.477 326.213 349.306Z" fill="#FFF9E9" stroke="#A6750F" stroke-width="12" stroke-miterlimit="5.5" stroke-linejoin="round"/>
<path d="M83.5746 170.683L129.489 101.999C132.856 96.9628 137.342 93.0119 142.496 90.5437C147.651 88.0754 153.292 87.1769 158.854 87.9383L237.772 98.7433C243.333 99.5047 248.618 101.899 253.096 105.686C257.573 109.473 261.086 114.519 263.28 120.317L291.919 195.986C294.113 201.784 294.913 208.129 294.236 214.384C293.559 220.64 291.43 226.584 288.063 231.621L242.25 300.152C238.883 305.189 234.397 309.14 229.243 311.608C224.088 314.076 218.447 314.975 212.886 314.213L134.163 303.435C128.598 302.673 123.309 300.282 118.824 296.5C114.34 292.718 110.816 287.678 108.605 281.885L79.7664 206.295C77.5584 200.507 76.7477 194.166 77.4163 187.914C78.0848 181.661 80.2096 175.717 83.5746 170.683Z" fill="#EFBA31" stroke="#A6750F" stroke-width="12" stroke-miterlimit="5.5" stroke-linejoin="round"/>
<path d="M101.295 111.516L278.295 259.516L101.295 111.516Z" fill="#E3A607"/>
<path d="M101.295 111.516L278.295 259.516" stroke="#A6750F" stroke-width="12" stroke-miterlimit="5.5" stroke-linejoin="round"/>
<path d="M77.8652 146.545L260.428 302.473L77.8652 146.545Z" fill="#E3A607"/>
<path d="M77.8652 146.545L260.428 302.473" stroke="#A6750F" stroke-width="12" stroke-miterlimit="5.5" stroke-linejoin="round"/>
<path d="M77.8652 146.545L260.428 302.473L77.8652 146.545Z" fill="#E3A607"/>
<path d="M77.8652 146.545L260.428 302.473" stroke="#A6750F" stroke-width="12" stroke-miterlimit="5.5" stroke-linejoin="round"/>
<path d="M19.3922 94.3121L39.055 64.8983C40.4968 62.7414 42.418 61.0494 44.6255 59.9924C46.833 58.9354 49.2489 58.5506 51.6305 58.8766L85.4272 63.5039C87.8088 63.83 90.0722 64.8554 91.9898 66.4772C93.9074 68.099 95.4116 70.26 96.3513 72.7429L108.616 105.148C109.556 107.631 109.898 110.349 109.608 113.027C109.318 115.706 108.406 118.252 106.965 120.409L87.3453 149.758C85.9034 151.914 83.9822 153.606 81.7748 154.663C79.5673 155.72 77.1515 156.105 74.77 155.779L41.0566 151.163C38.6737 150.837 36.4087 149.813 34.488 148.194C32.5673 146.574 31.0583 144.416 30.1116 141.934L17.7613 109.563C16.8158 107.084 16.4686 104.369 16.7549 101.691C17.0412 99.0133 17.9511 96.4678 19.3922 94.3121Z" fill="#FFF9E9" stroke="#A6750F" stroke-width="12" stroke-miterlimit="5.5" stroke-linejoin="round"/>
</svg>
