<?xml version="1.0" encoding="UTF-8" standalone="no"?>
<svg
   width="57"
   height="50"
   viewBox="0 0 57 50"
   fill="none"
   version="1.1"
   id="svg6"
   sodipodi:docname="suporte_branco.svg"
   inkscape:version="1.4 (86a8ad7, 2024-10-11)"
   xmlns:inkscape="http://www.inkscape.org/namespaces/inkscape"
   xmlns:sodipodi="http://sodipodi.sourceforge.net/DTD/sodipodi-0.dtd"
   xmlns="http://www.w3.org/2000/svg"
   xmlns:svg="http://www.w3.org/2000/svg">
  <defs
     id="defs6" />
  <sodipodi:namedview
     id="namedview6"
     pagecolor="#ffffff"
     bordercolor="#000000"
     borderopacity="0.25"
     inkscape:showpageshadow="2"
     inkscape:pageopacity="0.0"
     inkscape:pagecheckerboard="0"
     inkscape:deskcolor="#d1d1d1"
     inkscape:zoom="10.931871"
     inkscape:cx="16.053977"
     inkscape:cy="29.775324"
     inkscape:window-width="1920"
     inkscape:window-height="991"
     inkscape:window-x="-9"
     inkscape:window-y="-9"
     inkscape:window-maximized="1"
     inkscape:current-layer="svg6" />
  <mask
     id="path-2-inside-1_1394_326"
     fill="white">
    <path
       d="M35.3145 40.6187C39.0436 39.0422 42.1108 36.2213 43.9933 32.6369C45.8758 29.0524 46.4572 24.9261 45.6384 20.9611C44.8197 16.996 42.6514 13.4375 39.5031 10.8919C36.3548 8.34623 32.4212 6.97099 28.3726 7.00046C24.324 7.02993 20.4109 8.4623 17.2999 11.0535C14.189 13.6447 12.0728 17.2344 11.3119 21.2109C10.5509 25.1875 11.1923 29.3049 13.1268 32.8616C15.0613 36.4182 18.1692 39.1941 21.9209 40.7162L23.4124 37.0399C20.5113 35.8628 18.108 33.7163 16.612 30.9659C15.1161 28.2156 14.6201 25.0317 15.2085 21.9566C15.797 18.8815 17.4334 16.1057 19.8391 14.1019C22.2447 12.0982 25.2707 10.9905 28.4015 10.9677C31.5323 10.9449 34.5741 12.0084 37.0086 13.9769C39.4432 15.9454 41.1199 18.6972 41.753 21.7634C42.3862 24.8295 41.9366 28.0204 40.4808 30.7922C39.0251 33.564 36.6533 35.7453 33.7696 36.9645L35.3145 40.6187Z"
       id="path1" />
  </mask>
  <mask
     id="path-3-inside-2_1394_326"
     fill="white">
    <path
       d="M27.3106 48.9711C32.3976 49.2184 37.4353 47.8741 41.7229 45.1254C46.0105 42.3766 49.3348 38.36 51.2336 33.6341C53.1324 28.9083 53.5112 23.7082 52.3174 18.757C51.1235 13.8059 48.4164 9.34986 44.5724 6.00874C40.7285 2.66761 35.9389 0.607479 30.8697 0.11487C25.8005 -0.377739 20.7039 0.721666 16.2885 3.26018C11.8732 5.79869 8.35876 9.6501 6.23397 14.2787C4.10919 18.9074 3.4797 24.0831 4.43307 29.0862L8.07683 28.3918C7.2678 24.1463 7.80198 19.7541 9.60508 15.8263C11.4082 11.8984 14.3905 8.63008 18.1374 6.47591C21.8842 4.32173 26.2092 3.38878 30.5109 3.80681C34.8126 4.22483 38.8771 5.97306 42.1391 8.80834C45.401 11.6436 47.6983 15.425 48.7114 19.6265C49.7245 23.828 49.403 28.2409 47.7917 32.2512C46.1804 36.2616 43.3593 39.6701 39.7209 42.0027C36.0825 44.3353 31.8075 45.476 27.4907 45.2662L27.3106 48.9711Z"
       id="path3" />
  </mask>
  <g
     id="g6"
     style="stroke:#ffffff;stroke-opacity:1;fill:#ffffff;fill-opacity:1">
    <circle
       cx="51.5"
       cy="24.5"
       r="5"
       fill="#DCCEB1"
       stroke="#DCCEB1"
       id="circle1"
       style="stroke:#ffffff;stroke-opacity:1;fill:#ffffff;fill-opacity:1" />
    <path
       d="M35.3145 40.6187C39.0436 39.0422 42.1108 36.2213 43.9933 32.6369C45.8758 29.0524 46.4572 24.9261 45.6384 20.9611C44.8197 16.996 42.6514 13.4375 39.5031 10.8919C36.3548 8.34623 32.4212 6.97099 28.3726 7.00046C24.324 7.02993 20.4109 8.4623 17.2999 11.0535C14.189 13.6447 12.0728 17.2344 11.3119 21.2109C10.5509 25.1875 11.1923 29.3049 13.1268 32.8616C15.0613 36.4182 18.1692 39.1941 21.9209 40.7162L23.4124 37.0399C20.5113 35.8628 18.108 33.7163 16.612 30.9659C15.1161 28.2156 14.6201 25.0317 15.2085 21.9566C15.797 18.8815 17.4334 16.1057 19.8391 14.1019C22.2447 12.0982 25.2707 10.9905 28.4015 10.9677C31.5323 10.9449 34.5741 12.0084 37.0086 13.9769C39.4432 15.9454 41.1199 18.6972 41.753 21.7634C42.3862 24.8295 41.9366 28.0204 40.4808 30.7922C39.0251 33.564 36.6533 35.7453 33.7696 36.9645L35.3145 40.6187Z"
       stroke="#DCCEB1"
       stroke-width="10"
       mask="url(#path-2-inside-1_1394_326)"
       id="path2"
       style="stroke:#ffffff;stroke-opacity:1;fill:#ffffff;fill-opacity:1" />
    <path
       d="M27.3106 48.9711C32.3976 49.2184 37.4353 47.8741 41.7229 45.1254C46.0105 42.3766 49.3348 38.36 51.2336 33.6341C53.1324 28.9083 53.5112 23.7082 52.3174 18.757C51.1235 13.8059 48.4164 9.34986 44.5724 6.00874C40.7285 2.66761 35.9389 0.607479 30.8697 0.11487C25.8005 -0.377739 20.7039 0.721666 16.2885 3.26018C11.8732 5.79869 8.35876 9.6501 6.23397 14.2787C4.10919 18.9074 3.4797 24.0831 4.43307 29.0862L8.07683 28.3918C7.2678 24.1463 7.80198 19.7541 9.60508 15.8263C11.4082 11.8984 14.3905 8.63008 18.1374 6.47591C21.8842 4.32173 26.2092 3.38878 30.5109 3.80681C34.8126 4.22483 38.8771 5.97306 42.1391 8.80834C45.401 11.6436 47.6983 15.425 48.7114 19.6265C49.7245 23.828 49.403 28.2409 47.7917 32.2512C46.1804 36.2616 43.3593 39.6701 39.7209 42.0027C36.0825 44.3353 31.8075 45.476 27.4907 45.2662L27.3106 48.9711Z"
       stroke="#DCCEB1"
       stroke-width="6"
       stroke-linejoin="round"
       mask="url(#path-3-inside-2_1394_326)"
       id="path4"
       style="stroke:#ffffff;stroke-opacity:1;fill:#ffffff;fill-opacity:1" />
    <circle
       cx="5.5"
       cy="24.5"
       r="5"
       fill="#DCCEB1"
       stroke="#DCCEB1"
       id="circle4"
       style="stroke:#ffffff;stroke-opacity:1;fill:#ffffff;fill-opacity:1" />
    <path
       d="M28 46.6016V39.6016"
       stroke="#DCCEB1"
       stroke-width="5"
       stroke-linecap="round"
       id="path5"
       style="stroke:#ffffff;stroke-opacity:1;fill:#ffffff;fill-opacity:1" />
    <path
       d="M22.5 29C25 32 30 34.5 34.5 29"
       stroke="#DCCEB1"
       stroke-width="3"
       stroke-linecap="round"
       id="path6"
       style="stroke:#ffffff;stroke-opacity:1;fill:#ffffff;fill-opacity:1" />
  </g>
</svg>
