<?xml version="1.0" encoding="UTF-8" standalone="no"?>
<!-- Created with Inkscape (http://www.inkscape.org/) -->

<svg
   width="297mm"
   height="210mm"
   viewBox="0 0 297 210"
   version="1.1"
   id="svg1"
   sodipodi:docname="abelha_bizzu_marrom.svg"
   inkscape:version="1.4 (86a8ad7, 2024-10-11)"
   xmlns:inkscape="http://www.inkscape.org/namespaces/inkscape"
   xmlns:sodipodi="http://sodipodi.sourceforge.net/DTD/sodipodi-0.dtd"
   xmlns="http://www.w3.org/2000/svg"
   xmlns:svg="http://www.w3.org/2000/svg">
  <sodipodi:namedview
     id="namedview1"
     pagecolor="#ffffff"
     bordercolor="#000000"
     borderopacity="0.25"
     inkscape:showpageshadow="2"
     inkscape:pageopacity="0.0"
     inkscape:pagecheckerboard="0"
     inkscape:deskcolor="#d1d1d1"
     inkscape:document-units="mm"
     inkscape:zoom="0.68866448"
     inkscape:cx="674.49391"
     inkscape:cy="357.93918"
     inkscape:window-width="1920"
     inkscape:window-height="991"
     inkscape:window-x="-9"
     inkscape:window-y="-9"
     inkscape:window-maximized="1"
     inkscape:current-layer="g8" />
  <defs
     id="defs1" />
  <g
     inkscape:label="Camada 1"
     inkscape:groupmode="layer"
     id="layer1">
    <g
       id="g8"
       transform="matrix(7.5015659,-0.3614335,0.33137668,6.8777327,271.5162,200.83335)"
       style="display:inline;fill:none">
      <path
         d="m 41.337023,-3.1959938 c 0.07403,0.1833336 0.07996,0.3924557 0.0164,0.5814562 -0.06358,0.1890007 -0.191382,0.3424159 -0.355359,0.4265385 -0.163975,0.084134 -0.350658,0.092083 -0.519215,0.022142 -0.168451,-0.069957 -0.304916,-0.2120885 -0.379369,-0.3952087 -0.07445,-0.1831096 -0.08082,-0.3922219 -0.01769,-0.5814056 0.06314,-0.1891836 0.190607,-0.3429693 0.35435,-0.4275744 0.163742,-0.084605 0.350509,-0.093137 0.519154,-0.023685 0.168646,0.069443 0.305416,0.2111951 0.38029,0.3940806 l -0.618176,0.3190132 z"
         stroke="#a6750f"
         stroke-width="3.16652"
         stroke-miterlimit="5.5"
         stroke-linecap="round"
         stroke-linejoin="round"
         id="path1"
         style="stroke:#a6750f;stroke-opacity:1" />
      <path
         d="M 36.708471,11.31029 40.967546,3.9839178 40.847464,-1.5091476"
         stroke="#a6750f"
         stroke-width="2.67213"
         stroke-miterlimit="5.5"
         stroke-linecap="round"
         stroke-linejoin="round"
         id="path2"
         style="stroke:#a6750f;stroke-width:2.79173;stroke-dasharray:none;stroke-opacity:1" />
      <path
         d="m 62.930238,13.105133 c -0.177904,-0.01404 -0.353413,0.05297 -0.487813,0.186495 -0.134513,0.133426 -0.216876,0.322433 -0.229223,0.525377 -0.01225,0.202939 0.04648,0.403235 0.163548,0.556944 0.11707,0.153708 0.282755,0.248305 0.460681,0.262877 0.17793,0.01467 0.353562,-0.0519 0.488302,-0.185014 0.134746,-0.133007 0.217548,-0.321715 0.230323,-0.524678 0.01278,-0.202857 -0.04552,-0.403389 -0.162172,-0.557439 -0.116761,-0.154046 -0.282141,-0.249086 -0.460093,-0.264301 l -0.04791,0.765757 z"
         stroke="#a6750f"
         stroke-width="3.16652"
         stroke-miterlimit="5.5"
         stroke-linecap="round"
         stroke-linejoin="round"
         id="path3"
         style="stroke:#a6750f;stroke-opacity:1" />
      <path
         d="m 52.293445,23.447892 4.582614,-7.072921 4.596798,-1.797497"
         stroke="#a6750f"
         stroke-width="2.67213"
         stroke-miterlimit="5.5"
         stroke-linecap="round"
         stroke-linejoin="round"
         id="path4"
         style="stroke:#a6750f;stroke-width:2.79173;stroke-dasharray:none;stroke-opacity:1" />
      <path
         d="m 8.4898801,26.703758 2.3317409,-3.907031 c 0.170977,-0.28653 0.402453,-0.513585 0.671143,-0.658471 0.26869,-0.144887 0.56515,-0.202431 0.859559,-0.166805 l 4.177961,0.505308 c 0.294383,0.03552 0.57636,0.162986 0.817611,0.369584 0.241247,0.206491 0.433209,0.484794 0.556721,0.80684 l 1.610873,4.203847 c 0.123406,0.32205 0.173944,0.676676 0.146522,1.028054 -0.02753,0.351381 -0.132011,0.68712 -0.302988,0.97365 l -2.326517,3.898408 c -0.170977,0.286531 -0.402529,0.513588 -0.671196,0.658475 -0.268669,0.144884 -0.565113,0.202319 -0.8595,0.166693 l -4.167667,-0.503974 c -0.294569,-0.03562 -0.576773,-0.16286 -0.818386,-0.369118 -0.24162,-0.206152 -0.43419,-0.484103 -0.5584591,-0.806005 L 8.3359795,28.70416 C 8.2118407,28.382573 8.1607058,28.028297 8.1877182,27.677154 8.2147371,27.325905 8.3189906,26.99007 8.4898801,26.703758 Z"
         fill="#fff9e9"
         stroke="#a6750f"
         stroke-width="2.89453"
         stroke-miterlimit="5.5"
         stroke-linejoin="round"
         id="path5"
         style="stroke:#a6750f;stroke-width:2.33365;stroke-dasharray:none;stroke-opacity:1" />
      <path
         d="m 48.691123,57.154403 2.351575,-3.891876 c 0.172422,-0.285312 0.273611,-0.612197 0.293506,-0.947862 0.0198,-0.335555 -0.04252,-0.667933 -0.180654,-0.963839 l -1.960179,-4.198309 c -0.138132,-0.295798 -0.347269,-0.544723 -0.606321,-0.721486 -0.259057,-0.17687 -0.558982,-0.275462 -0.869534,-0.285948 l -4.053304,-0.136618 c -0.310553,-0.01051 -0.620875,0.06759 -0.899719,0.226371 -0.278848,0.158682 -0.516463,0.392471 -0.68888,0.677891 l -2.346447,3.883258 c -0.172422,0.285312 -0.273612,0.612197 -0.293399,0.947859 -0.0198,0.335553 0.04242,0.667937 0.180544,0.963735 l 1.955363,4.188018 c 0.138246,0.296007 0.347286,0.545153 0.606145,0.722462 0.258972,0.177411 0.558819,0.276758 0.869518,0.288203 l 4.053276,0.149286 c 0.310372,0.01135 0.620617,-0.06597 0.899595,-0.224111 0.278866,-0.158254 0.516489,-0.391828 0.688915,-0.677034 z"
         fill="#fff9e9"
         stroke="#a6750f"
         stroke-width="2.89453"
         stroke-miterlimit="5.5"
         stroke-linejoin="round"
         id="path6"
         style="stroke:#a6750f;stroke-width:2.33365;stroke-dasharray:none;stroke-opacity:1" />
      <path
         d="m 61.623455,53.871694 3.161752,-5.320463 c 0.231761,-0.390132 0.368378,-0.842484 0.395892,-1.311735 0.02751,-0.46925 -0.05491,-0.938826 -0.239037,-1.361458 l -2.61292,-5.997294 C 62.144906,39.458117 61.865576,39.097361 61.51912,38.834603 61.172664,38.571846 60.771263,38.416382 60.355273,38.383994 l -5.428936,-0.423917 c -0.415996,-0.0325 -0.831835,0.0591 -1.205913,0.265593 -0.37397,0.206494 -0.692947,0.520605 -0.924814,0.910741 l -3.154715,5.30864 c -0.231863,0.390243 -0.368372,0.842591 -0.395887,1.311842 -0.02762,0.469255 0.05491,0.938718 0.239034,1.361351 l 2.606531,5.98257 c 0.184245,0.422841 0.463377,0.784037 0.809752,1.047442 0.346378,0.263512 0.747603,0.419951 1.163763,0.453835 l 5.428895,0.44163 c 0.415726,0.0338 0.831604,-0.05683 1.205605,-0.262574 0.374108,-0.205747 0.693205,-0.519542 0.924867,-0.909453 z"
         fill="#fff9e9"
         stroke="#a6750f"
         stroke-width="3.96487"
         stroke-miterlimit="5.5"
         stroke-linejoin="round"
         id="path7"
         style="stroke:#a6750f;stroke-width:2.7732;stroke-dasharray:none;stroke-opacity:1" />
      <path
         d="m 17.829655,25.510718 7.48933,-12.342007 c 0.549215,-0.905019 1.300277,-1.630326 2.177754,-2.102966 0.87748,-0.472532 1.850478,-0.675892 2.821061,-0.589401 l 13.774636,1.226653 c 0.970686,0.08639 1.904913,0.459513 2.708635,1.081818 0.803727,0.622413 1.448795,1.471939 1.870271,2.463445 l 5.500853,12.939744 c 0.421579,0.991394 0.604638,2.089839 0.530991,3.184779 -0.07376,1.094945 -0.401792,2.147836 -0.9509,3.052851 l -7.472712,12.314804 c -0.549215,0.90502 -1.300281,1.630219 -2.177758,2.102859 -0.877475,0.47264 -1.85037,0.675888 -2.821061,0.5894 L 27.540167,48.20914 C 26.568939,48.12268 25.634199,47.750108 24.829226,47.12872 24.024149,46.507447 23.377191,45.658975 22.95296,44.668353 L 17.417942,31.743984 c -0.423866,-0.989567 -0.608926,-2.087059 -0.536655,-3.181502 0.07227,-1.094445 0.399562,-2.147194 0.948368,-3.051764 z"
         fill="#efba31"
         stroke="#a6750f"
         stroke-width="5"
         stroke-miterlimit="5.5"
         stroke-linejoin="round"
         id="path8"
         style="stroke:#a6750f;stroke-width:3.88812;stroke-dasharray:none;stroke-opacity:1"
         sodipodi:nodetypes="cccccccccccscccccsc" />
      <path
         d="M 20.491786,15.061601 53.273224,40.70055 Z"
         fill="#e3a607"
         id="path9"
         style="stroke:#a6750f;stroke-width:1.07246;stroke-opacity:1" />
      <path
         d="M 20.27626,15.395942 53.48875,40.36621"
         stroke="#a6750f"
         stroke-width="5.0544"
         stroke-miterlimit="5.5"
         stroke-linejoin="round"
         id="path10"
         sodipodi:nodetypes="cc"
         style="stroke:#a6750f;stroke-width:3.58938;stroke-dasharray:none;stroke-opacity:1" />
      <path
         d="M 16.939613,20.651 50.152102,45.621268"
         stroke="#a6750f"
         stroke-width="5.0544"
         stroke-miterlimit="5.5"
         stroke-linejoin="round"
         id="path10-8"
         sodipodi:nodetypes="cc"
         style="fill:none;stroke:#a6750f;stroke-width:3.58938;stroke-dasharray:none;stroke-opacity:1" />
      <path
         d="M 16.669993,21.358187 49.451537,46.997132 Z"
         fill="#e3a607"
         id="path11"
         style="stroke:#a6750f;stroke-width:1.07246;stroke-opacity:1" />
      <path
         d="M 16.669993,21.358187 49.451537,46.997132 Z"
         fill="#e3a607"
         id="path13"
         style="stroke:#a6750f;stroke-width:1.07246;stroke-opacity:1" />
      <path
         d="M 6.8241051,12.22775 10.031396,6.9422528 c 0.235188,-0.387612 0.55684,-0.698201 0.932618,-0.900592 0.375789,-0.202393 0.792467,-0.289409 1.20815,-0.25239 l 5.899038,0.525318 c 0.415641,0.03702 0.815709,0.196738 1.159954,0.463251 0.344138,0.266517 0.620374,0.630427 0.800929,1.054946 l 2.355751,5.5415492 c 0.180555,0.42452 0.258933,0.894934 0.227325,1.363843 -0.03151,0.468905 -0.171931,0.91983 -0.40712,1.307441 l -3.200238,5.27378 c -0.235192,0.387504 -0.556882,0.698203 -0.932628,0.900594 -0.375746,0.202392 -0.792413,0.289407 -1.208053,0.252385 L 10.98263,21.948403 C 10.566717,21.911286 10.166379,21.751799 9.821647,21.485739 9.4769111,21.219572 9.1998503,20.856239 9.0181576,20.431987 L 6.6477657,14.897151 C 6.4662768,14.473426 6.3870116,14.003377 6.4179637,13.534714 6.4489225,13.065943 6.5890578,12.61514 6.8241051,12.22775 Z"
         fill="#fff9e9"
         stroke="#a6750f"
         stroke-width="3.96487"
         stroke-miterlimit="5.5"
         stroke-linejoin="round"
         id="path15"
         style="stroke:#a6750f;stroke-width:2.7732;stroke-dasharray:none;stroke-opacity:1" />
    </g>
  </g>
</svg>
