<svg width="33" height="32" viewBox="0 0 33 32" fill="none" xmlns="http://www.w3.org/2000/svg">
<path d="M19.051 7.9426C19.3188 8.40681 19.3186 8.97861 19.0505 9.4426L15.1882 16.1263C14.9201 16.5903 14.4248 16.876 13.8889 16.8758L6.16951 16.8728C5.63361 16.8726 5.13853 16.5865 4.87076 16.1223L1.01364 9.43569C0.745866 8.97148 0.746085 8.39969 1.01421 7.93569L4.87647 1.25199C5.14459 0.787989 5.63989 0.50228 6.17579 0.502486L13.8952 0.505446C14.4311 0.505652 14.9262 0.79174 15.1939 1.25594L19.051 7.9426Z" stroke="#FFFEFA"/>
<path d="M31.6882 17.62C31.956 18.0842 31.9558 18.656 31.6877 19.12L28.5263 24.5907C28.2582 25.0547 27.7629 25.3404 27.227 25.3402L20.9086 25.3377C20.3727 25.3375 19.8776 25.0514 19.6098 24.5872L16.4527 19.1141C16.185 18.6499 16.1852 18.0781 16.4533 17.6141L19.6146 12.1434C19.8827 11.6794 20.378 11.3937 20.9139 11.3939L27.2324 11.3963C27.7683 11.3965 28.2633 11.6826 28.5311 12.1468L31.6882 17.62Z" stroke="#FFFEFA"/>
<path d="M17.4737 24.4811C17.7414 24.9453 17.7412 25.5171 17.4731 25.9811L14.7192 30.7467C14.4511 31.2107 13.9558 31.4964 13.4199 31.4962L7.91585 31.4941C7.37995 31.4939 6.88487 31.2078 6.6171 30.7436L3.8669 25.9759C3.59912 25.5117 3.59934 24.9399 3.86747 24.4759L6.62133 19.7103C6.88945 19.2463 7.38475 18.9606 7.92065 18.9608L13.4247 18.9629C13.9606 18.9631 14.4557 19.2492 14.7235 19.7134L17.4737 24.4811Z" stroke="#FFFEFA"/>
</svg>
