<?xml version="1.0" encoding="UTF-8" standalone="no"?>
<!-- Created with Inkscape (http://www.inkscape.org/) -->

<svg
   width="297mm"
   height="210mm"
   viewBox="0 0 1122.5197 793.70081"
   version="1.1"
   id="svg1"
   inkscape:version="1.4 (86a8ad7, 2024-10-11)"
   sodipodi:docname="logotipo_bizzu_colorida.svg"
   xmlns:inkscape="http://www.inkscape.org/namespaces/inkscape"
   xmlns:sodipodi="http://sodipodi.sourceforge.net/DTD/sodipodi-0.dtd"
   xmlns="http://www.w3.org/2000/svg"
   xmlns:svg="http://www.w3.org/2000/svg">
  <sodipodi:namedview
     id="namedview1"
     pagecolor="#ffffff"
     bordercolor="#000000"
     borderopacity="0.25"
     inkscape:showpageshadow="2"
     inkscape:pageopacity="0.0"
     inkscape:pagecheckerboard="0"
     inkscape:deskcolor="#d1d1d1"
     inkscape:document-units="mm"
     inkscape:zoom="0.68866448"
     inkscape:cx="479.9144"
     inkscape:cy="357.93918"
     inkscape:window-width="1920"
     inkscape:window-height="991"
     inkscape:window-x="-9"
     inkscape:window-y="-9"
     inkscape:window-maximized="1"
     inkscape:current-layer="layer1" />
  <defs
     id="defs1" />
  <g
     inkscape:label="Camada 1"
     inkscape:groupmode="layer"
     id="layer1">
    <path
       d="m 371.98697,326.18123 c -5.96593,-0.13626 -10.35675,2.50678 -14.90184,5.96058 -3.97247,3.97392 -5.95835,8.81708 -5.95869,14.52998 l 2.6e-4,157.96554 20.86321,-6.9e-4 c 5.71505,10e-4 10.55596,-1.98829 14.53006,-5.96049 3.97194,-3.9747 5.95817,-8.81777 5.958,-14.53015 l 2.6e-4,-157.96546 z"
       style="font-size:4.8959px;font-family:Labora;-inkscape-font-specification:Labora;white-space:pre;inline-size:13.0757;display:inline;fill:#efba31;fill-opacity:1;stroke-width:62.0626;stroke-opacity:0.4242"
       id="path1-86-3-8-2-7"
       sodipodi:nodetypes="ccccscscc" />
    <path
       d="m 905.79475,421.69984 v 0 c 0,-6.71994 -2.46136,-12.43172 -7.39155,-17.13542 -4.70067,-4.92792 -10.41548,-7.39168 -17.13529,-7.39185 -6.94329,0.003 -12.87921,2.46298 -17.80717,7.39185 -4.70075,4.70361 -7.05572,10.41574 -7.05536,17.13542 6.5e-4,6.94374 2.3544,12.87957 7.05528,17.80733 4.92733,4.70361 10.86367,7.05577 17.80725,7.0556 6.71852,5.1e-4 12.43167,-2.35104 17.13543,-7.05586 4.92718,-4.92784 7.39185,-10.86325 7.39141,-17.80707 z"
       style="font-size:4.8959px;font-family:Labora;-inkscape-font-specification:Labora;white-space:pre;inline-size:13.0757;display:inline;fill:#27211b;fill-opacity:1;stroke-width:55.97;stroke-opacity:0.4242"
       id="path1-6-7-2-0-2" />
    <path
       d="m 521.87418,367.73557 v 0 l -103.94452,89.41447 c -6.46053,5.71246 -9.68622,12.66707 -9.68622,20.86312 l -0.0173,0.37256 c 1.8e-4,7.45119 2.61054,13.78476 7.82367,19.0004 5.21235,5.21571 11.54989,7.82392 19.00099,7.82383 h 151.632 l 7e-5,-20.49074 c -3.6e-4,-5.71238 -1.98592,-10.55605 -5.95834,-14.52989 -3.97221,-4.22255 -8.81571,-6.3334 -14.52973,-6.33349 l -93.13985,-8e-5 103.94393,-89.04182 c 6.46053,-5.71246 9.68716,-12.66716 9.68701,-20.86321 v 0 c -2.8e-4,-7.45144 -2.73013,-13.78485 -8.19643,-19.00091 -5.21989,-5.46444 -11.5498,-8.19606 -19.00023,-8.19623 H 408.2293 v 20.49082 c 3.4e-4,5.71264 1.98579,10.55588 5.95825,14.52998 3.97238,3.97367 8.81588,5.9605 14.52989,5.9605 z"
       style="font-size:4.8959px;font-family:Labora;-inkscape-font-specification:Labora;white-space:pre;inline-size:13.0757;display:inline;fill:#efba31;fill-opacity:1;stroke-width:62.0626;stroke-opacity:0.4242"
       id="path1-0-8-6-6-2"
       sodipodi:nodetypes="cccsssscccsccssccccscc" />
    <path
       d="m 714.38637,367.16287 v 0 l -103.94458,89.41464 c -6.46081,5.71246 -9.68651,12.66716 -9.68636,20.86338 l 0.009,0.37084 c 2.2e-4,7.45127 2.61059,13.78459 7.82343,19.00065 5.22039,5.21571 11.55002,7.82375 19.00059,7.82366 h 151.63138 l 7e-5,-20.4909 c -4.3e-4,-5.71264 -1.98585,-10.5558 -5.95834,-14.52972 -3.97192,-4.22256 -8.8155,-6.33367 -14.52973,-6.3335 H 665.5914 l 103.94451,-89.04207 c 6.4606,-5.71247 9.68651,-12.6669 9.68637,-20.86321 v 0 c -2.2e-4,-7.45118 -2.73244,-13.78485 -8.19615,-19.00074 -5.21263,-5.46435 -11.54958,-8.19605 -19.00066,-8.19614 l -151.25912,9e-5 v 20.49047 c 2.9e-4,5.71264 1.98585,10.55605 5.9582,14.53015 3.97243,3.97366 8.81593,5.9605 14.52994,5.96059 z"
       style="font-size:4.8959px;font-family:Labora;-inkscape-font-specification:Labora;white-space:pre;inline-size:13.0757;display:inline;fill:#efba31;fill-opacity:1;stroke-width:62.0626;stroke-opacity:0.4242"
       id="path1-93-8-0-4-8" />
    <path
       d="m 970.30316,415.36451 v 0 c 5.8e-4,24.83747 -8.69343,45.94923 -26.07909,63.33519 -4.46691,4.47067 -9.43657,8.44486 -14.90273,11.92203 -14.40579,9.43819 -30.42552,14.15741 -48.06011,14.15724 -17.88258,7.2e-4 -33.90233,-4.7194 -48.06028,-14.15733 -12.66708,-7.94776 -22.7263,-18.50372 -30.17745,-31.66772 -7.44993,-13.16365 -11.17622,-27.69337 -11.17643,-43.58915 l 1.4e-4,-89.04208 v 0 c 28.09283,-1.97657 41.35367,5.34835 41.35367,40.98173 l 1.5e-4,48.06009 c -8e-5,13.41211 4.59601,24.83739 13.78486,34.2755 9.43826,9.18998 20.86334,13.78484 34.27534,13.78484 13.16373,-1.7e-4 24.46495,-4.5946 33.90332,-13.78467 9.43837,-9.43828 14.15679,-20.86348 14.15687,-34.27567 v -48.06009 c -0.47257,-39.43723 18.02534,-40.98199 40.98153,-40.98181 v 0 z"
       style="font-size:4.8959px;font-family:Labora;-inkscape-font-specification:Labora;white-space:pre;inline-size:13.0757;display:inline;fill:#efba31;fill-opacity:1;stroke-width:62.0626;stroke-opacity:0.4242"
       id="path1-66-2-3-0-2"
       sodipodi:nodetypes="csccsccscssscscscscc" />
    <path
       d="m 298.40302,373.90969 v 0 q 16.71687,8.86949 26.95118,25.24612 10.23483,16.37518 10.23491,36.16212 -9.8e-4,28.65776 -20.1282,49.12699 -20.12795,20.12854 -48.7859,20.12862 l -157.27411,-1.7e-4 8e-5,-169.89713 q -6.9e-4,-28.65693 20.12855,-48.78538 20.46937,-20.1282 49.12673,-20.12837 h 62.77264 q 28.65794,0 48.78665,20.12837 20.46929,20.12863 20.46896,48.78547 -0.009,0.69933 0.0168,1.36372 -0.009,0.69935 0.0169,1.36381 l -0.34968,1.02439 q 0.009,0.34547 -0.009,0.69682 l 0.0168,1.36381 q 0.009,0.34548 -0.006,1.02346 -0.009,0.69936 -0.34714,1.36844 v 0 q 0.0252,2.046 -0.34969,4.09066 -0.34967,0.69766 -0.34798,1.02422 -0.009,0.69936 -0.34716,1.36844 -0.009,0.69766 -0.34714,1.36649 0,0 0,0 -0.009,0.69767 -0.34717,1.36843 v 0 q -0.34713,1.36843 -0.69764,2.38989 -0.34884,1.70885 -1.02499,3.7562 -0.34967,0.69767 -0.34799,1.02422 -0.34967,0.69767 -0.69683,1.36591 -0.34798,1.02422 -1.02523,2.39005 -0.34966,0.69766 -0.34799,1.0222 -0.34966,0.70019 -0.69682,1.36591 -0.69515,1.02549 -1.02373,2.04819 -0.34966,0.70019 -0.6968,1.3659 -1.70879,2.73191 -3.4146,5.11472 z M 147.26928,334.67633 v 0 l -8e-5,31.72792 94.15996,-2.6e-4 q 12.96476,-6.9e-4 22.17596,-9.21126 9.21111,-9.21127 9.21101,-22.51649 0.002,-12.96378 -9.21117,-22.17504 -9.21136,-9.21136 -22.17573,-9.21102 l -62.77297,-4.2e-4 q -12.96411,6.8e-4 -22.17572,9.21118 -6.82165,6.82215 -8.86983,16.03393 -0.34883,3.07333 -0.34547,6.13927 z m 119.40573,132.028 v 0 q 12.96387,-6.7e-4 22.17529,-9.21136 9.21143,-9.21035 9.21128,-22.17463 0.002,-12.9642 -9.21153,-22.17539 -9.21108,-9.21142 -22.17488,-9.21151 h -88.01891 q -12.96411,6.7e-4 -22.17588,9.21168 -9.21118,9.21127 -9.21102,22.17497 l -3.4e-4,31.38632 z"
       id="text18"
       style="font-size:4.8959px;font-family:Labora;-inkscape-font-specification:Labora;display:inline;fill:#efba31;stroke-width:155.589;paint-order:stroke fill markers"
       aria-label="B" />
  </g>
</svg>
