<svg width="119" height="32" viewBox="0 0 119 32" fill="none" xmlns="http://www.w3.org/2000/svg">
<path d="M0.579004 0.849999H14.214C21.564 0.849999 25.239 3.34 25.239 8.32C25.239 10.21 25.029 11.665 24.609 12.685C24.219 13.705 23.394 14.665 22.134 15.565C23.604 16.195 24.609 16.975 25.149 17.905C25.719 18.805 26.004 20.32 26.004 22.45C26.004 28.15 22.134 31 14.394 31H0.579004V0.849999ZM13.449 19.075H11.019V24.025H13.449C14.499 24.025 15.204 23.86 15.564 23.53C15.924 23.17 16.104 22.525 16.104 21.595C16.104 20.635 15.909 19.975 15.519 19.615C15.129 19.255 14.439 19.075 13.449 19.075ZM13.314 7.735H11.019V12.55H13.359C14.259 12.55 14.889 12.355 15.249 11.965C15.609 11.575 15.789 10.96 15.789 10.12C15.789 9.25 15.594 8.635 15.204 8.275C14.814 7.915 14.184 7.735 13.314 7.735ZM27.913 31V0.849999H38.353V31H27.913ZM40.5576 9.355V0.849999H64.4076V9.355L54.6426 21.73V22.495H64.4076V31H40.5576V22.9L50.5476 10.12V9.355H40.5576ZM66.1778 9.355V0.849999H90.0278V9.355L80.2628 21.73V22.495H90.0278V31H66.1778V22.9L76.1678 10.12V9.355H66.1778ZM102.553 0.849999V20.605C102.553 21.475 102.763 22.09 103.183 22.45C103.633 22.81 104.368 22.99 105.388 22.99C106.408 22.99 107.128 22.81 107.548 22.45C107.968 22.09 108.178 21.475 108.178 20.605V0.849999H118.618V20.02C118.618 24.28 117.553 27.28 115.423 29.02C113.293 30.73 109.933 31.585 105.343 31.585C100.783 31.585 97.4379 30.745 95.3079 29.065C93.1779 27.385 92.1129 24.43 92.1129 20.2V0.849999H102.553Z" fill="url(#paint0_linear_584_3060)"/>
<defs>
<linearGradient id="paint0_linear_584_3060" x1="-0.999999" y1="14.3778" x2="101.785" y2="14.3778" gradientUnits="userSpaceOnUse">
<stop stop-color="#F7C110"/>
<stop offset="1" stop-color="#F79010"/>
</linearGradient>
</defs>
</svg>
