<?xml version="1.0" encoding="UTF-8" standalone="no"?>
<!-- Created with Inkscape (http://www.inkscape.org/) -->

<svg
   width="180"
   height="180"
   viewBox="0 0 180 180"
   version="1.1"
   id="svg1"
   xml:space="preserve"
   sodipodi:docname="svg_comunidades_branco.svg"
   inkscape:version="1.4 (86a8ad7, 2024-10-11)"
   xmlns:inkscape="http://www.inkscape.org/namespaces/inkscape"
   xmlns:sodipodi="http://sodipodi.sourceforge.net/DTD/sodipodi-0.dtd"
   xmlns="http://www.w3.org/2000/svg"
   xmlns:svg="http://www.w3.org/2000/svg"><sodipodi:namedview
     id="namedview1"
     pagecolor="#1e1e1e"
     bordercolor="#000000"
     borderopacity="0.25"
     inkscape:showpageshadow="2"
     inkscape:pageopacity="0.0"
     inkscape:pagecheckerboard="0"
     inkscape:deskcolor="#d1d1d1"
     inkscape:document-units="px"
     inkscape:zoom="2.1472222"
     inkscape:cx="-18.163001"
     inkscape:cy="67.296248"
     inkscape:window-width="1920"
     inkscape:window-height="991"
     inkscape:window-x="-9"
     inkscape:window-y="-9"
     inkscape:window-maximized="1"
     inkscape:current-layer="layer1"
     inkscape:export-bgcolor="#000000ff" /><defs
     id="defs1" /><g
     inkscape:label="Camada 1"
     inkscape:groupmode="layer"
     id="layer1"><path
       d="M 84.130362,90.33862 98.900805,64.61883 c 1.082625,-1.88592 1.636855,-4.021146 1.605785,-6.191677 -0.0312,-2.170516 -0.6457,-4.299729 -1.782468,-6.173238 l -16.13034,-26.58585 c -1.13719,-1.873459 -2.75578,-3.425103 -4.69353,-4.49955 -1.93771,-1.07445 -4.12663,-1.633647 -6.34639,-1.620702 L 42.583379,19.71117 c -2.219904,0.01243 -4.392109,0.596026 -6.299312,1.692124 -1.906727,1.096079 -3.480827,2.666061 -4.564063,4.55204 L 16.982438,51.617965 c -1.083197,1.886465 -1.636815,4.021637 -1.605742,6.192165 0.0307,2.170573 0.646136,4.299192 1.78247,6.17274 l 16.090779,26.52058 c 1.137358,1.87444 2.755063,3.42818 4.692573,4.50564 1.937596,1.07795 4.125962,1.64171 6.347212,1.63558 l 28.976952,-0.0818 c 2.21899,-0.006 4.39173,-0.58547 6.29887,-1.67811 1.90761,-1.09269 3.48258,-2.66127 4.56481,-4.54613 z"
       fill="#fff9e9"
       stroke="#a6750f"
       stroke-width="3.96487"
       stroke-miterlimit="5.5"
       stroke-linejoin="round"
       id="path7-2-4"
       style="display:inline;fill:none;fill-opacity:1;stroke:#ffffff;stroke-width:6.9951;stroke-dasharray:none;stroke-opacity:1" /><path
       d="m 148.39347,126.53996 11.93154,-20.77639 c 0.87451,-1.52345 1.32221,-3.24827 1.2971,-5.00162 -0.0251,-1.75335 -0.52155,-3.47332 -1.43991,-4.98673 L 147.15229,74.29921 c -0.91869,-1.51337 -2.22615,-2.76678 -3.79146,-3.63472 -1.56535,-0.86793 -3.33347,-1.31966 -5.12664,-1.3092 l -23.40231,0.13195 c -1.79318,0.0102 -3.54787,0.48147 -5.0885,1.3669 -1.54025,0.88542 -2.81189,2.15365 -3.6869,3.67713 L 94.151542,95.26149 c -0.87498,1.52388 -1.32226,3.24868 -1.29711,5.00203 0.025,1.75336 0.52152,3.47289 1.43979,4.98631 l 12.998228,21.42327 c 0.91867,1.51418 2.22545,2.76928 3.79056,3.63964 1.56529,0.87078 3.33299,1.32618 5.12724,1.32125 l 23.40756,-0.0661 c 1.79251,-0.006 3.54769,-0.47295 5.08824,-1.3556 1.54095,-0.88267 2.81314,-2.14976 3.68742,-3.67235 z"
       fill="#fff9e9"
       stroke="#a6750f"
       stroke-width="3.96487"
       stroke-miterlimit="5.5"
       stroke-linejoin="round"
       id="path7-2-4-3"
       style="display:inline;fill:none;fill-opacity:1;stroke:#ffffff;stroke-width:6.12853;stroke-dasharray:none;stroke-opacity:1" /><path
       d="m 86.187602,155.39232 10.0823,-17.5564 c 0.73905,-1.28733 1.11738,-2.74485 1.09621,-4.22646 -0.0211,-1.48162 -0.44118,-2.93498 -1.21675,-4.21387 l -11.01063,-18.1476 c -0.77632,-1.27882 -1.88106,-2.33797 -3.20374,-3.07141 -1.32272,-0.73341 -2.81685,-1.11512 -4.33215,-1.10629 l -19.775258,0.11155 c -1.515366,0.009 -2.998156,0.40687 -4.299989,1.15504 -1.301547,0.74819 -2.376103,1.81987 -3.115481,3.10724 l -10.059788,17.51739 c -0.739447,1.28773 -1.117401,2.74519 -1.096131,4.2268 0.02108,1.48163 0.441156,2.93463 1.216675,4.21353 l 10.983677,18.10303 c 0.776327,1.27952 1.880513,2.3401 3.20311,3.07558 1.322622,0.73581 2.816425,1.12063 4.332654,1.11644 l 19.779771,-0.0559 c 1.51464,-0.004 2.99777,-0.3996 4.29959,-1.14551 1.3021,-0.74585 2.37716,-1.81658 3.11593,-3.1032 z"
       fill="#fff9e9"
       stroke="#a6750f"
       stroke-width="3.96487"
       stroke-miterlimit="5.5"
       stroke-linejoin="round"
       id="path7-2-4-3-1"
       style="display:inline;fill:none;fill-opacity:1;stroke:#ffffff;stroke-width:5.18369;stroke-dasharray:none;stroke-opacity:1" /></g></svg>
