<svg width="15" height="10" viewBox="0 0 15 10" fill="none" xmlns="http://www.w3.org/2000/svg">
<path d="M14.2062 2.26618C12.7852 3.21996 11.5126 4.27468 10.3883 5.43033C9.25597 6.5858 8.20282 7.84068 7.22889 9.19499C6.32339 7.79948 5.33032 6.49973 4.24968 5.29574C3.1609 4.09157 1.9276 2.98192 0.549783 1.96677L1.37355 0.592896C1.85073 0.733597 2.34699 0.931697 2.86235 1.1872C3.37753 1.45083 3.89181 1.75514 4.40521 2.10014C4.91047 2.44496 5.41483 2.83045 5.91831 3.25663C6.41365 3.68263 6.88404 4.1325 7.32949 4.60625C7.79528 4.15248 8.28494 3.72366 8.79847 3.31978C9.31201 2.9159 9.83287 2.54881 10.3611 2.21851C10.8891 1.89635 11.4161 1.61893 11.9422 1.38627C12.4601 1.15342 12.9605 0.977174 13.4434 0.857521L14.2062 2.26618Z" fill="#FFFEFB"/>
</svg>
