<svg width="24" height="24" viewBox="0 0 24 24" fill="none" xmlns="http://www.w3.org/2000/svg">
<path d="M8.33398 3.66797C6.67698 3.66797 5.33398 5.01097 5.33398 6.66797V17.3346C5.33398 18.9916 6.67698 20.3346 8.33398 20.3346H15.6673C17.3243 20.3346 18.6673 18.9916 18.6673 17.3346V10.3346H14.0007C12.896 10.3346 12.0007 9.4393 12.0007 8.33464V3.66797H8.33398ZM13.334 3.78255V8.33464C13.334 8.70297 13.6327 9.0013 14.0007 9.0013H18.5527L13.334 3.78255ZM9.66732 12.668H14.334C14.702 12.668 15.0007 12.9663 15.0007 13.3346C15.0007 13.703 14.702 14.0013 14.334 14.0013H9.66732C9.29932 14.0013 9.00065 13.703 9.00065 13.3346C9.00065 12.9663 9.29932 12.668 9.66732 12.668ZM9.66732 15.668H14.334C14.702 15.668 15.0007 15.9663 15.0007 16.3346C15.0007 16.703 14.702 17.0013 14.334 17.0013H9.66732C9.29932 17.0013 9.00065 16.703 9.00065 16.3346C9.00065 15.9663 9.29932 15.668 9.66732 15.668Z" fill="white"/>
</svg>
