<svg width="29" height="30" viewBox="0 0 29 30" fill="none" xmlns="http://www.w3.org/2000/svg">
<path d="M25.375 5.9375H3.625C3.38465 5.9375 3.15414 6.03298 2.98418 6.20293C2.81423 6.37289 2.71875 6.6034 2.71875 6.84375V22.25C2.71875 22.7307 2.90971 23.1917 3.24962 23.5316C3.58953 23.8715 4.05055 24.0625 4.53125 24.0625H24.4688C24.9495 24.0625 25.4105 23.8715 25.7504 23.5316C26.0903 23.1917 26.2812 22.7307 26.2812 22.25V6.84375C26.2812 6.6034 26.1858 6.37289 26.0158 6.20293C25.8459 6.03298 25.6154 5.9375 25.375 5.9375ZM14.5 15.5834L5.9552 7.75H23.0448L14.5 15.5834ZM11.182 15L4.53125 21.0957V8.90434L11.182 15ZM12.5232 16.2291L13.8826 17.4809C14.0498 17.6343 14.2685 17.7195 14.4955 17.7195C14.7224 17.7195 14.9411 17.6343 15.1083 17.4809L16.4677 16.2291L23.038 22.25H5.9552L12.5232 16.2291ZM17.818 15L24.4688 8.9032V21.0968L17.818 15Z" fill="#333333"/>
</svg>
