<svg width="26" height="26" viewBox="0 0 26 26" fill="none" xmlns="http://www.w3.org/2000/svg">
<path d="M25.1174 12.6709C25.0819 12.5907 24.2216 10.6823 22.3092 8.76992C19.761 6.22172 16.5425 4.875 13 4.875C9.45749 4.875 6.23897 6.22172 3.69077 8.76992C1.77835 10.6823 0.914053 12.5938 0.882568 12.6709C0.836371 12.7748 0.8125 12.8873 0.8125 13.001C0.8125 13.1147 0.836371 13.2272 0.882568 13.3311C0.918115 13.4113 1.77835 15.3187 3.69077 17.2311C6.23897 19.7783 9.45749 21.125 13 21.125C16.5425 21.125 19.761 19.7783 22.3092 17.2311C24.2216 15.3187 25.0819 13.4113 25.1174 13.3311C25.1636 13.2272 25.1875 13.1147 25.1875 13.001C25.1875 12.8873 25.1636 12.7748 25.1174 12.6709ZM13 19.5C9.8739 19.5 7.14288 18.3635 4.8821 16.123C3.95447 15.2005 3.16527 14.1486 2.53905 13C3.16511 11.8513 3.95432 10.7993 4.8821 9.87695C7.14288 7.63648 9.8739 6.5 13 6.5C16.1261 6.5 18.8571 7.63648 21.1179 9.87695C22.0473 10.7991 22.8382 11.851 23.466 13C22.7337 14.367 19.5437 19.5 13 19.5ZM13 8.125C12.0358 8.125 11.0933 8.41091 10.2916 8.94659C9.4899 9.48226 8.86506 10.2436 8.49608 11.1344C8.1271 12.0252 8.03056 13.0054 8.21866 13.9511C8.40676 14.8967 8.87106 15.7654 9.55285 16.4471C10.2346 17.1289 11.1033 17.5932 12.0489 17.7813C12.9946 17.9694 13.9748 17.8729 14.8656 17.5039C15.7564 17.1349 16.5177 16.5101 17.0534 15.7084C17.5891 14.9067 17.875 13.9642 17.875 13C17.8736 11.7075 17.3596 10.4683 16.4457 9.55434C15.5317 8.64039 14.2925 8.12634 13 8.125ZM13 16.25C12.3572 16.25 11.7288 16.0594 11.1944 15.7023C10.6599 15.3452 10.2434 14.8376 9.99738 14.2437C9.7514 13.6499 9.68704 12.9964 9.81244 12.366C9.93784 11.7355 10.2474 11.1564 10.7019 10.7019C11.1564 10.2474 11.7355 9.93785 12.3659 9.81245C12.9964 9.68705 13.6499 9.75141 14.2437 9.99739C14.8376 10.2434 15.3452 10.6599 15.7023 11.1944C16.0594 11.7289 16.25 12.3572 16.25 13C16.25 13.862 15.9076 14.6886 15.2981 15.2981C14.6886 15.9076 13.8619 16.25 13 16.25Z" fill="#333333"/>
</svg>
