<svg width="26" height="26" viewBox="0 0 26 26" fill="none" xmlns="http://www.w3.org/2000/svg">
<path d="M5.47624 3.51598C5.40489 3.43555 5.31828 3.37008 5.22144 3.32337C5.1246 3.27665 5.01945 3.24963 4.91209 3.24385C4.80472 3.23807 4.69728 3.25366 4.59599 3.28972C4.49469 3.32577 4.40156 3.38157 4.32199 3.45388C4.24242 3.52619 4.178 3.61358 4.13245 3.71097C4.0869 3.80837 4.06114 3.91383 4.05665 4.02126C4.05216 4.12868 4.06904 4.23593 4.1063 4.33679C4.14357 4.43764 4.20048 4.53009 4.27374 4.60879L6.2278 6.75887C2.53905 9.0227 0.952647 12.5124 0.882568 12.6708C0.836371 12.7747 0.8125 12.8872 0.8125 13.0009C0.8125 13.1146 0.836371 13.2271 0.882568 13.331C0.918115 13.4112 1.77835 15.3186 3.69077 17.231C6.23897 19.7782 9.45749 21.1249 13 21.1249C14.8206 21.1353 16.6228 20.7604 18.2884 20.025L20.5227 22.4838C20.5941 22.5642 20.6807 22.6297 20.7775 22.6764C20.8744 22.7231 20.9795 22.7501 21.0869 22.7559C21.1942 22.7617 21.3017 22.7461 21.403 22.7101C21.5043 22.674 21.5974 22.6182 21.677 22.5459C21.7565 22.4736 21.821 22.3862 21.8665 22.2888C21.9121 22.1914 21.9378 22.0859 21.9423 21.9785C21.9468 21.8711 21.9299 21.7638 21.8927 21.663C21.8554 21.5621 21.7985 21.4697 21.7252 21.391L5.47624 3.51598ZM10.2832 11.2185L14.5153 15.8751C13.878 16.2104 13.1474 16.3245 12.4382 16.1996C11.729 16.0746 11.0814 15.7176 10.597 15.1847C10.1127 14.6518 9.81909 13.9731 9.76228 13.2552C9.70548 12.5374 9.8887 11.8209 10.2832 11.2185ZM13 19.4999C9.8739 19.4999 7.14288 18.3634 4.8821 16.1229C3.95414 15.2007 3.1649 14.1488 2.53905 12.9999C3.01538 12.1072 4.53577 9.60871 7.34804 7.98473L9.17616 9.99059C8.46841 10.897 8.1039 12.0245 8.14706 13.1737C8.19022 14.3229 8.63828 15.4199 9.41203 16.2707C10.1858 17.1215 11.2354 17.6714 12.3754 17.8231C13.5153 17.9749 14.6723 17.7187 15.6416 17.1L17.1376 18.7453C15.8173 19.2518 14.4141 19.5077 13 19.4999ZM13.6094 9.80778C13.3976 9.76737 13.2107 9.64452 13.0895 9.46624C12.9684 9.28796 12.923 9.06887 12.9634 8.85715C13.0038 8.64543 13.1267 8.45844 13.305 8.3373C13.4832 8.21617 13.7023 8.17081 13.9141 8.21121C14.9496 8.41197 15.8925 8.94211 16.6021 9.72255C17.3117 10.503 17.75 11.4919 17.8516 12.5418C17.8717 12.7564 17.8057 12.9701 17.6682 13.136C17.5307 13.3019 17.3329 13.4064 17.1184 13.4264C17.093 13.4279 17.0675 13.4279 17.0422 13.4264C16.8391 13.4273 16.6431 13.3521 16.4927 13.2156C16.3423 13.0792 16.2485 12.8913 16.2297 12.6891C16.1613 11.9908 15.8693 11.3331 15.3972 10.814C14.9251 10.2949 14.2981 9.94197 13.6094 9.80778ZM25.1144 13.331C25.0717 13.4264 24.0429 15.7045 21.7262 17.7794C21.6471 17.8526 21.5542 17.9092 21.4529 17.9461C21.3516 17.983 21.244 17.9994 21.1363 17.9943C21.0287 17.9892 20.9231 17.9627 20.8258 17.9164C20.7284 17.8701 20.6413 17.8049 20.5694 17.7246C20.4975 17.6443 20.4423 17.5505 20.407 17.4487C20.3718 17.3468 20.3571 17.239 20.3639 17.1314C20.3707 17.0238 20.3989 16.9187 20.4467 16.8221C20.4945 16.7255 20.5611 16.6394 20.6426 16.5688C21.7791 15.5477 22.7338 14.3409 23.466 12.9999C22.8388 11.85 22.0478 10.7973 21.1179 9.87481C18.8571 7.63637 16.1261 6.49989 13 6.49989C12.3413 6.49908 11.6837 6.55241 11.0337 6.65934C10.928 6.67803 10.8197 6.67559 10.715 6.65217C10.6102 6.62875 10.5111 6.58481 10.4235 6.52288C10.3358 6.46096 10.2613 6.38227 10.2042 6.29138C10.1471 6.20049 10.1086 6.09918 10.0909 5.99332C10.0732 5.88746 10.0766 5.77914 10.101 5.67461C10.1254 5.57009 10.1703 5.47143 10.233 5.38434C10.2957 5.29726 10.3751 5.22346 10.4665 5.16722C10.5579 5.11098 10.6596 5.07341 10.7656 5.05668C11.5041 4.93474 12.2515 4.87393 13 4.87489C16.5425 4.87489 19.761 6.2216 22.3092 8.76981C24.2216 10.6822 25.0819 12.5906 25.1174 12.6708C25.1636 12.7747 25.1875 12.8872 25.1875 13.0009C25.1875 13.1146 25.1636 13.2271 25.1174 13.331H25.1144Z" fill="#333333"/>
</svg>
