<svg width="29" height="30" viewBox="0 0 29 30" fill="none" xmlns="http://www.w3.org/2000/svg">
<path d="M23.5625 9.5625H19.9375V6.84375C19.9375 5.40164 19.3646 4.01859 18.3449 2.99886C17.3252 1.97913 15.9421 1.40625 14.5 1.40625C13.0579 1.40625 11.6748 1.97913 10.6551 2.99886C9.63538 4.01859 9.0625 5.40164 9.0625 6.84375V9.5625H5.4375C4.9568 9.5625 4.49578 9.75346 4.15587 10.0934C3.81596 10.4333 3.625 10.8943 3.625 11.375V24.0625C3.625 24.5432 3.81596 25.0042 4.15587 25.3441C4.49578 25.684 4.9568 25.875 5.4375 25.875H23.5625C24.0432 25.875 24.5042 25.684 24.8441 25.3441C25.184 25.0042 25.375 24.5432 25.375 24.0625V11.375C25.375 10.8943 25.184 10.4333 24.8441 10.0934C24.5042 9.75346 24.0432 9.5625 23.5625 9.5625ZM10.875 6.84375C10.875 5.88234 11.2569 4.96031 11.9367 4.28049C12.6166 3.60067 13.5386 3.21875 14.5 3.21875C15.4614 3.21875 16.3834 3.60067 17.0633 4.28049C17.7431 4.96031 18.125 5.88234 18.125 6.84375V9.5625H10.875V6.84375ZM23.5625 24.0625H5.4375V11.375H23.5625V24.0625ZM15.8594 17.7188C15.8594 17.9876 15.7796 18.2504 15.6303 18.474C15.4809 18.6975 15.2686 18.8718 15.0202 18.9746C14.7718 19.0775 14.4985 19.1045 14.2348 19.052C13.9711 18.9996 13.7289 18.8701 13.5388 18.68C13.3487 18.4899 13.2192 18.2476 13.1667 17.9839C13.1143 17.7203 13.1412 17.4469 13.2441 17.1985C13.347 16.9501 13.5212 16.7378 13.7448 16.5885C13.9683 16.4391 14.2311 16.3594 14.5 16.3594C14.8605 16.3594 15.2063 16.5026 15.4612 16.7575C15.7162 17.0125 15.8594 17.3582 15.8594 17.7188Z" fill="#333333"/>
</svg>
