<svg width="29" height="29" viewBox="0 0 29 29" fill="none" xmlns="http://www.w3.org/2000/svg">
<path d="M26.1588 24.0157C24.4335 21.033 21.7748 18.8942 18.672 17.8803C20.2068 16.9667 21.3992 15.5745 22.0662 13.9175C22.7331 12.2606 22.8377 10.4305 22.3639 8.70836C21.8901 6.98621 20.8641 5.4672 19.4435 4.38461C18.0228 3.30202 16.286 2.7157 14.4999 2.7157C12.7138 2.7157 10.977 3.30202 9.55633 4.38461C8.13566 5.4672 7.10965 6.98621 6.63584 8.70836C6.16204 10.4305 6.26665 12.2606 6.9336 13.9175C7.60055 15.5745 8.79297 16.9667 10.3277 17.8803C7.22497 18.8931 4.56626 21.0318 2.84099 24.0157C2.77772 24.1188 2.73575 24.2336 2.71757 24.3533C2.69938 24.4729 2.70534 24.595 2.7351 24.7123C2.76485 24.8296 2.8178 24.9397 2.89082 25.0362C2.96384 25.1328 3.05545 25.2137 3.16024 25.2742C3.26504 25.3347 3.38089 25.3736 3.50097 25.3887C3.62106 25.4037 3.74293 25.3945 3.85941 25.3617C3.97589 25.3289 4.08461 25.273 4.17917 25.1975C4.27372 25.122 4.35218 25.0283 4.40993 24.9219C6.54415 21.2335 10.3164 19.0313 14.4999 19.0313C18.6834 19.0313 22.4556 21.2335 24.5899 24.9219C24.6476 25.0283 24.7261 25.122 24.8206 25.1975C24.9152 25.273 25.0239 25.3289 25.1404 25.3617C25.2569 25.3945 25.3787 25.4037 25.4988 25.3887C25.6189 25.3736 25.7348 25.3347 25.8395 25.2742C25.9443 25.2137 26.0359 25.1328 26.109 25.0362C26.182 24.9397 26.2349 24.8296 26.2647 24.7123C26.2944 24.595 26.3004 24.4729 26.2822 24.3533C26.264 24.2336 26.2221 24.1188 26.1588 24.0157ZM8.15614 10.875C8.15614 9.62036 8.5282 8.39386 9.22526 7.35063C9.92232 6.30741 10.9131 5.49431 12.0722 5.01417C13.2314 4.53403 14.5069 4.4084 15.7375 4.65317C16.9681 4.89795 18.0984 5.50213 18.9856 6.38932C19.8728 7.27651 20.477 8.40686 20.7218 9.63743C20.9665 10.868 20.8409 12.1435 20.3608 13.3027C19.8806 14.4618 19.0675 15.4526 18.0243 16.1497C16.9811 16.8467 15.7546 17.2188 14.4999 17.2188C12.818 17.217 11.2055 16.548 10.0162 15.3588C8.82688 14.1695 8.15794 12.5569 8.15614 10.875Z" fill="#333333"/>
</svg>
